<?xml version="1.0" encoding="UTF-8" standalone="no"?><!DOCTYPE svg PUBLIC "-//W3C//DTD SVG 1.1//EN" "http://www.w3.org/Graphics/SVG/1.1/DTD/svg11.dtd"><svg width="100%" height="100%" viewBox="0 0 2250 2813" version="1.1" xmlns="http://www.w3.org/2000/svg" xmlns:xlink="http://www.w3.org/1999/xlink" xml:space="preserve" xmlns:serif="http://www.serif.com/" style="fill-rule:evenodd;clip-rule:evenodd;stroke-linecap:round;stroke-linejoin:round;stroke-miterlimit:1.5;"><rect id="CLOUDY" x="0" y="0" width="2250" height="2812.5" style="fill:none;"/><clipPath id="_clip1"><rect id="CLOUDY1" serif:id="CLOUDY" x="0" y="0" width="2250" height="2812.5"/></clipPath><g clip-path="url(#_clip1)"><g><path d="M1447.385,1517.755c-38.767,18.501 -82.494,28.912 -128.747,28.912c-159.286,0 -288.606,-123.478 -288.606,-275.568c0,-152.09 129.32,-275.568 288.606,-275.568c0.718,0 1.436,0.003 2.153,0.008c52.481,-103.004 178.294,-175.624 324.999,-175.624c179.428,0 327.603,108.628 348.59,248.615c12.836,-2.277 26.07,-3.467 39.593,-3.467c119.095,0 215.784,92.322 215.784,206.037c0,113.715 -96.69,206.037 -215.784,206.037c-57.019,0 -108.903,-21.162 -147.498,-55.703c-18.441,108.678 -119.25,191.869 -240.685,191.869c-81.771,0 -154.19,-37.722 -198.405,-95.547Z" style="fill:#fff;"/><path d="M352.286,1135.901c-32.746,15.627 -69.681,24.422 -108.75,24.422c-134.545,0 -243.779,-104.299 -243.779,-232.767c0,-128.468 109.234,-232.767 243.779,-232.767c0.607,-0 1.213,0.002 1.818,0.006c44.33,-87.006 150.601,-148.346 274.52,-148.346c151.559,0 276.719,91.756 294.446,210c10.843,-1.923 22.021,-2.929 33.444,-2.929c100.597,0 182.268,77.982 182.268,174.035c0,96.052 -81.672,174.035 -182.268,174.035c-48.163,0 -91.988,-17.875 -124.589,-47.051c-15.577,91.798 -100.728,162.068 -203.301,162.068c-69.071,0 -130.241,-31.863 -167.588,-80.706Z" style="fill:#fff;"/><path d="M960.185,2651.725l578.222,0c29.3,-50.822 44.726,-108.472 44.726,-167.155c0,-184.511 -149.587,-334.311 -333.837,-334.311c-184.25,0 -333.837,149.8 -333.837,334.311c0,58.684 15.425,116.334 44.726,167.155Z" style="fill:#2ac413;"/><path d="M480.786,2651.89l869.348,0c44.053,-75.548 67.244,-161.247 67.244,-248.483c0,-274.283 -224.902,-496.965 -501.918,-496.965c-277.016,0 -501.918,222.683 -501.918,496.965c0,87.236 23.192,172.934 67.244,248.483Z" style="fill:#2ac413;"/><circle cx="1179.627" cy="2088.057" r="201.428" style="fill:#2ac413;"/><ellipse cx="1179.627" cy="2311.592" rx="102.792" ry="39.832" style="fill:#ecb1d5;"/><circle cx="665.659" cy="2088.057" r="201.428" style="fill:#2ac413;"/><ellipse cx="644.454" cy="2311.592" rx="102.792" ry="39.832" style="fill:#ecb1d5;"/><circle cx="1179.627" cy="2088.057" r="155.198" style="fill:#ffc432;"/><circle cx="665.659" cy="2088.057" r="155.198" style="fill:#ffc432;"/><path d="M711.639,2651.22l374.62,0c18.983,-30.383 28.977,-64.849 28.977,-99.932c0,-110.308 -96.915,-199.864 -216.287,-199.864c-119.372,0 -216.287,89.556 -216.287,199.864c0,35.084 9.994,69.549 28.977,99.932Z" style="fill:#ffc432;"/><path d="M1551.452,2491.023c36.545,25.491 32.661,94.291 -8.668,153.543c-41.329,59.252 -104.553,86.662 -141.098,61.171c-36.545,-25.491 -32.661,-94.291 8.668,-153.543c41.329,-59.252 104.553,-86.662 141.098,-61.171Z" style="fill:#2ac413;"/><path d="M1178.625,2491.023c36.545,25.491 32.661,94.291 -8.668,153.543c-41.329,59.252 -104.553,86.662 -141.098,61.171c-36.545,-25.491 -32.661,-94.291 8.668,-153.543c41.329,-59.252 104.553,-86.662 141.098,-61.171Z" style="fill:#2ac413;"/><path d="M621.761,2491.023c36.545,25.491 32.661,94.291 -8.668,153.543c-41.329,59.252 -104.553,86.662 -141.098,61.171c-36.545,-25.491 -32.661,-94.291 8.668,-153.543c41.329,-59.252 104.553,-86.662 141.098,-61.171Z" style="fill:#2ac413;"/><path d="M991.466,2150.847c-9.055,12.51 -9.409,18.34 -35.644,6.949c-22.378,-9.716 -21.23,-13.578 -27.007,-21.181c-18.04,31.373 -57.477,30.789 -61.728,7.31" style="fill:none;stroke:#000;stroke-width:6.25px;"/><circle cx="665.659" cy="2088.057" r="108.794" style="fill:#292929;"/><circle cx="1179.627" cy="2088.057" r="108.794" style="fill:#292929;"/><circle cx="1148.527" cy="2119.158" r="31.1" style="fill:#fff;"/><circle cx="633.554" cy="2119.158" r="31.1" style="fill:#fff;"/><circle cx="706.665" cy="2050.353" r="17.892" style="fill:#fff;"/><circle cx="1218.952" cy="2050.353" r="17.892" style="fill:#fff;"/><path d="M1026.827,575.237c-26.554,12.672 -56.504,19.803 -88.185,19.803c-109.103,0 -197.681,-84.577 -197.681,-188.751c0,-104.175 88.578,-188.751 197.681,-188.751c0.492,-0 0.983,0.002 1.475,0.005c35.947,-70.553 122.122,-120.294 222.608,-120.294c122.899,0 224.392,74.405 238.767,170.289c8.792,-1.559 17.857,-2.375 27.12,-2.375c81.574,0 147.802,63.236 147.802,141.125c0,77.889 -66.228,141.125 -147.802,141.125c-39.055,0 -74.593,-14.495 -101.029,-38.154c-12.631,74.439 -81.681,131.421 -164.857,131.421c-56.009,0 -105.613,-25.838 -135.898,-65.445Z" style="fill:#fff;"/><g><path d="M1210.511,2300.553l12.611,22.312" style="fill:none;stroke:#000;stroke-width:6.25px;"/><path d="M1177.985,2304.501l11.74,23.022" style="fill:none;stroke:#000;stroke-width:6.25px;"/><path d="M1132.749,2307l15.547,27.279" style="fill:none;stroke:#000;stroke-width:6.25px;"/><path d="M678.623,2306.178l9.051,18.9" style="fill:none;stroke:#000;stroke-width:6.25px;"/><path d="M637.542,2304.242l8.53,27.709" style="fill:none;stroke:#000;stroke-width:6.25px;"/><path d="M598.145,2303.493l6.281,20.632" style="fill:none;stroke:#000;stroke-width:6.25px;"/></g></g></g></svg>