<?xml version="1.0" encoding="UTF-8" standalone="no"?><!DOCTYPE svg PUBLIC "-//W3C//DTD SVG 1.1//EN" "http://www.w3.org/Graphics/SVG/1.1/DTD/svg11.dtd"><svg width="100%" height="100%" viewBox="0 0 2250 2813" version="1.1" xmlns="http://www.w3.org/2000/svg" xmlns:xlink="http://www.w3.org/1999/xlink" xml:space="preserve" xmlns:serif="http://www.serif.com/" style="fill-rule:evenodd;clip-rule:evenodd;stroke-linecap:round;stroke-linejoin:round;stroke-miterlimit:1.5;"><rect id="DRIZZLE" x="0" y="0" width="2250" height="2812.5" style="fill:none;"/><g id="DRIZZLE1" serif:id="DRIZZLE"><g><path d="M1129.413,2529.875l-576.569,0c-29.217,-50.676 -44.598,-108.162 -44.598,-166.678c0,-183.984 149.16,-333.355 332.882,-333.355c183.723,0 332.882,149.371 332.882,333.355c0,58.516 -15.381,116.001 -44.598,166.678Z" style="fill:#2ac413;"/><path d="M1607.442,2530.04l-866.862,0c-43.927,-75.332 -67.052,-160.786 -67.052,-247.772c0,-273.498 224.259,-495.544 500.483,-495.544c276.224,0 500.483,222.046 500.483,495.544c0,86.986 -23.125,172.44 -67.052,247.772Z" style="fill:#2ac413;"/><circle cx="910.598" cy="1967.819" r="200.852" style="fill:#2ac413;"/><ellipse cx="910.598" cy="2190.715" rx="102.498" ry="39.718" style="fill:#ecb1d5;"/><circle cx="1423.097" cy="1967.819" r="200.852" style="fill:#2ac413;"/><ellipse cx="1444.241" cy="2190.715" rx="102.498" ry="39.718" style="fill:#ecb1d5;"/><circle cx="910.598" cy="1967.819" r="154.755" style="fill:#ffc432;"/><circle cx="1423.097" cy="1967.819" r="154.755" style="fill:#ffc432;"/><path d="M1377.248,2529.372l-373.549,0c-18.929,-30.296 -28.894,-64.663 -28.894,-99.647c0,-109.993 96.638,-199.293 215.669,-199.293c119.031,0 215.669,89.3 215.669,199.293c0,34.983 -9.965,69.35 -28.894,99.647Z" style="fill:#ffc432;"/><path d="M539.836,2369.632c-36.441,25.418 -32.568,94.022 8.643,153.104c41.211,59.083 104.254,86.414 140.695,60.996c36.441,-25.418 32.568,-94.022 -8.643,-153.104c-41.211,-59.083 -104.254,-86.414 -140.695,-60.996Z" style="fill:#2ac413;"/><path d="M911.597,2369.632c-36.441,25.418 -32.568,94.022 8.643,153.104c41.211,59.083 104.254,86.414 140.695,60.996c36.441,-25.418 32.568,-94.022 -8.643,-153.104c-41.211,-59.083 -104.254,-86.414 -140.695,-60.996Z" style="fill:#2ac413;"/><path d="M1466.87,2369.632c-36.441,25.418 -32.568,94.022 8.643,153.104c41.211,59.083 104.254,86.414 140.695,60.996c36.441,-25.418 32.568,-94.022 -8.643,-153.104c-41.211,-59.083 -104.254,-86.414 -140.695,-60.996Z" style="fill:#2ac413;"/><circle cx="1423.097" cy="1967.819" r="108.482" style="fill:#292929;"/><circle cx="910.598" cy="1967.819" r="108.482" style="fill:#292929;"/><circle cx="910.598" cy="1918.429" r="31.011" style="fill:#fff;"/><circle cx="1423.097" cy="1918.429" r="31.011" style="fill:#fff;"/><g><path d="M879.803,2179.707l-12.575,22.248" style="fill:none;stroke:#000;stroke-width:6.25px;"/><path d="M912.236,2183.644l-11.706,22.956" style="fill:none;stroke:#000;stroke-width:6.25px;"/><path d="M957.343,2186.135l-15.502,27.201" style="fill:none;stroke:#000;stroke-width:6.25px;"/><path d="M1410.17,2185.316l-9.025,18.846" style="fill:none;stroke:#000;stroke-width:6.25px;"/><path d="M1451.133,2183.385l-8.506,27.63" style="fill:none;stroke:#000;stroke-width:6.25px;"/><path d="M1490.418,2182.639l-6.263,20.573" style="fill:none;stroke:#000;stroke-width:6.25px;"/></g><path d="M1094.221,2033.325c-1.598,-2.208 -1.103,-5.299 1.105,-6.897c2.208,-1.598 5.299,-1.103 6.897,1.105c2.198,3.036 3.861,5.672 5.527,7.737c1.075,1.332 2.062,2.406 3.471,2.906c1.555,0.552 3.479,0.418 6.15,-0.176c3.63,-0.808 8.264,-2.497 14.426,-5.173c20.685,-8.981 19.624,-12.55 24.965,-19.578c1.001,-1.318 2.596,-2.046 4.248,-1.941c1.652,0.106 3.141,1.032 3.966,2.467c9.57,16.643 25.792,23.401 38.177,21.431c7.159,-1.138 12.929,-5.361 14.233,-12.56c0.486,-2.682 3.058,-4.466 5.74,-3.98c2.682,0.486 4.466,3.058 3.98,5.74c-2.088,11.531 -10.935,18.732 -22.401,20.555c-13.853,2.203 -31.813,-3.777 -44.064,-19.882c-3.333,4.933 -7.358,9.187 -24.909,16.808c-14.96,6.496 -22.683,7.419 -27.815,5.597c-2.548,-0.904 -4.649,-2.43 -6.615,-4.568c-2.184,-2.374 -4.234,-5.659 -7.08,-9.592Z"/><path d="M774.538,915.127c-70.575,18.448 -150.179,28.83 -234.382,28.83c-289.978,0 -525.404,-123.125 -525.404,-274.781c0,-151.656 235.426,-274.781 525.404,-274.781c1.308,-0 2.614,0.003 3.919,0.008c95.542,-102.71 324.582,-175.122 591.657,-175.122c326.646,0 596.397,108.317 634.604,247.905c23.369,-2.27 47.461,-3.457 72.079,-3.457c216.81,0 392.833,92.058 392.833,205.447c0,113.39 -176.023,205.447 -392.833,205.447c-103.803,0 -198.256,-21.102 -268.519,-55.544c-33.572,108.367 -217.094,191.321 -438.164,191.321c-148.864,0 -280.702,-37.614 -361.194,-95.274Z" style="fill:#fff;"/><path d="M301.184,1739.03c0,0 30.717,141.672 30.717,202.389c0,16.953 -13.764,30.717 -30.717,30.717c-16.953,0 -30.717,-13.764 -30.717,-30.717c0,-60.717 30.717,-202.389 30.717,-202.389Z" style="fill:#379cca;"/><path d="M794.272,1167.818c0,0 30.717,141.672 30.717,202.389c0,16.953 -13.764,30.717 -30.717,30.717c-16.953,0 -30.717,-13.764 -30.717,-30.717c0,-60.717 30.717,-202.389 30.717,-202.389Z" style="fill:#379cca;"/><path d="M1938.935,2041.282c0,0 30.717,141.672 30.717,202.389c0,16.953 -13.764,30.717 -30.717,30.717c-16.953,0 -30.717,-13.764 -30.717,-30.717c0,-60.717 30.717,-202.389 30.717,-202.389Z" style="fill:#379cca;"/><path d="M1484.399,1377.867c0,0 30.717,141.672 30.717,202.389c0,16.953 -13.764,30.717 -30.717,30.717c-16.953,0 -30.717,-13.764 -30.717,-30.717c0,-60.717 30.717,-202.389 30.717,-202.389Z" style="fill:#379cca;"/><g><circle cx="910.359" cy="2024.503" r="17.841" style="fill:#fff;"/><circle cx="1421.18" cy="2024.503" r="17.841" style="fill:#fff;"/></g></g></g></svg>