<?xml version="1.0" encoding="UTF-8" standalone="no"?><!DOCTYPE svg PUBLIC "-//W3C//DTD SVG 1.1//EN" "http://www.w3.org/Graphics/SVG/1.1/DTD/svg11.dtd"><svg width="100%" height="100%" viewBox="0 0 2250 2813" version="1.1" xmlns="http://www.w3.org/2000/svg" xmlns:xlink="http://www.w3.org/1999/xlink" xml:space="preserve" xmlns:serif="http://www.serif.com/" style="fill-rule:evenodd;clip-rule:evenodd;stroke-linecap:round;stroke-linejoin:round;stroke-miterlimit:1.5;"><rect id="RAIN-SHOWER" serif:id="RAIN SHOWER" x="0" y="0" width="2250" height="2812.5" style="fill:none;"/><clipPath id="_clip1"><rect id="RAIN-SHOWER1" serif:id="RAIN SHOWER" x="0" y="0" width="2250" height="2812.5"/></clipPath><g clip-path="url(#_clip1)"><g><path d="M1033.437,2268.831l513.441,0c26.018,-45.128 39.715,-96.319 39.715,-148.428c0,-163.839 -132.828,-296.856 -296.435,-296.856c-163.607,0 -296.435,133.017 -296.435,296.856c0,52.109 13.697,103.3 39.715,148.428Z" style="fill:#2ac413;"/><path d="M607.747,2268.978l771.95,0c39.117,-67.084 59.711,-143.182 59.711,-220.644c0,-243.553 -199.705,-441.287 -445.686,-441.287c-245.981,0 -445.686,197.734 -445.686,441.287c0,77.462 20.593,153.56 59.711,220.644Z" style="fill:#2ac413;"/><circle cx="1228.294" cy="1768.315" r="178.861" style="fill:#2ac413;"/><ellipse cx="1228.294" cy="1966.806" rx="91.276" ry="35.369" style="fill:#ecb1d5;"/><circle cx="771.908" cy="1768.315" r="178.861" style="fill:#2ac413;"/><ellipse cx="753.079" cy="1966.806" rx="91.276" ry="35.369" style="fill:#ecb1d5;"/><circle cx="1228.294" cy="1768.315" r="137.811" style="fill:#ffc432;"/><circle cx="771.908" cy="1768.315" r="137.811" style="fill:#ffc432;"/><path d="M812.737,2268.384l332.65,0c16.856,-26.979 25.731,-57.583 25.731,-88.736c0,-97.95 -86.057,-177.473 -192.055,-177.473c-105.998,0 -192.055,79.523 -192.055,177.473c0,31.153 8.874,61.757 25.731,88.736Z" style="fill:#ffc432;"/><path d="M1558.461,2126.134c32.451,22.635 29.002,83.727 -7.697,136.341c-36.699,52.614 -92.839,76.953 -125.29,54.318c-32.451,-22.635 -29.002,-83.727 7.697,-136.341c36.699,-52.614 92.839,-76.953 125.29,-54.318Z" style="fill:#2ac413;"/><path d="M1227.404,2126.134c32.451,22.635 29.002,83.727 -7.697,136.341c-36.699,52.614 -92.839,76.953 -125.29,54.318c-32.451,-22.635 -29.002,-83.727 7.697,-136.341c36.699,-52.614 92.839,-76.953 125.29,-54.318Z" style="fill:#2ac413;"/><path d="M648.694,2145.327c-19.783,34.264 -80.946,36.042 -136.5,3.968c-55.554,-32.074 -84.596,-85.933 -64.814,-120.197c19.783,-34.264 80.946,-36.042 136.5,-3.968c55.554,32.074 84.596,85.933 64.814,120.197Z" style="fill:#2ac413;"/><path d="M1061.213,1824.07c-8.04,11.108 -8.355,16.285 -31.651,6.17c-19.871,-8.628 -18.851,-12.057 -23.981,-18.808c-16.019,27.858 -51.037,27.34 -54.812,6.491" style="fill:none;stroke:#000;stroke-width:6.25px;"/><circle cx="771.908" cy="1768.315" r="96.605" style="fill:#292929;"/><circle cx="1228.294" cy="1768.315" r="96.605" style="fill:#292929;"/><circle cx="744.292" cy="1740.699" r="27.616" style="fill:#fff;"/><circle cx="1200.678" cy="1740.699" r="27.616" style="fill:#fff;"/><path d="M1373.371,1078.465c-37.342,74.97 -173.031,164.317 -345.715,220.446c-217.068,70.556 -410.92,62.079 -432.623,-18.918c-16.041,-59.867 66.422,-142.703 198.188,-210.338c-57.531,-70.51 -50.354,-154.489 29.248,-212.903c107.698,-79.033 307.449,-81.533 445.787,-5.579c110.052,60.423 148.298,152.411 105.115,227.292Z" style="fill:#2ac413;"/><path d="M864.21,1146.917c-23.152,27.76 -46.303,55.52 -69.455,83.28" style="fill:none;stroke:#000;stroke-width:6.25px;"/><path d="M996.384,1134.406c-16.724,28.111 -33.449,56.222 -50.173,84.333" style="fill:none;stroke:#000;stroke-width:6.25px;"/><path d="M1172.785,1101.384c-18.996,23.804 -37.992,47.607 -56.988,71.411" style="fill:none;stroke:#000;stroke-width:6.25px;"/><path d="M844.54,916.647c36.398,14.215 72.796,28.43 109.194,42.645" style="fill:none;stroke:#000;stroke-width:6.25px;"/><path d="M965.283,873.106c33.012,20.812 66.025,41.623 99.037,62.435" style="fill:none;stroke:#000;stroke-width:6.25px;"/><path d="M1110.83,878.717c35.407,17.712 70.814,35.424 106.221,53.136" style="fill:none;stroke:#000;stroke-width:6.25px;"/><path d="M1305.262,1014.959c0,0 -245.62,46.833 -498.003,56.132c-122.579,4.516 -145.57,-6.669 -183.467,109.31" style="fill:none;stroke:#000;stroke-width:6.25px;"/><path d="M627.862,1345.136c-13.589,254.375 -239.932,340.503 -175.958,530.743c9.225,27.433 85.407,253.975 59.463,356.863" style="fill:none;stroke:#000;stroke-width:6.25px;"/><g><path d="M1253.803,1957.004l11.198,19.812" style="fill:none;stroke:#000;stroke-width:6.25px;"/><path d="M1224.922,1960.51l10.424,20.443" style="fill:none;stroke:#000;stroke-width:6.25px;"/><path d="M1184.753,1962.728l13.805,24.222" style="fill:none;stroke:#000;stroke-width:6.25px;"/><path d="M781.506,1961.998l8.037,16.783" style="fill:none;stroke:#000;stroke-width:6.25px;"/><path d="M745.028,1960.279l7.574,24.605" style="fill:none;stroke:#000;stroke-width:6.25px;"/><path d="M710.044,1959.615l5.578,18.321" style="fill:none;stroke:#000;stroke-width:6.25px;"/></g><path d="M459.016,930.189c0,0 69.87,96.399 69.87,137.713c0,38.562 -31.308,69.87 -69.87,69.87c-38.562,0 -69.87,-31.308 -69.87,-69.87c0,-41.314 69.87,-137.713 69.87,-137.713Z" style="fill:#379cca;"/><path d="M1115.035,690.851c0,0 69.87,96.399 69.87,137.713c0,38.562 -31.308,69.87 -69.87,69.87c-38.562,0 -69.87,-31.308 -69.87,-69.87c0,-41.314 69.87,-137.713 69.87,-137.713Z" style="fill:#379cca;"/><path d="M1791.45,794.643c0,0 69.87,96.399 69.87,137.713c0,38.562 -31.308,69.87 -69.87,69.87c-38.562,0 -69.87,-31.308 -69.87,-69.87c0,-41.314 69.87,-137.713 69.87,-137.713Z" style="fill:#379cca;"/><path d="M1530.49,1101.824c0,0 69.87,96.399 69.87,137.713c0,38.562 -31.308,69.87 -69.87,69.87c-38.562,0 -69.87,-31.308 -69.87,-69.87c0,-41.314 69.87,-137.713 69.87,-137.713Z" style="fill:#379cca;"/><path d="M1721.58,1476.869c0,0 69.87,96.399 69.87,137.713c0,38.562 -31.308,69.87 -69.87,69.87c-38.562,0 -69.87,-31.308 -69.87,-69.87c0,-41.314 69.87,-137.713 69.87,-137.713Z" style="fill:#379cca;"/><path d="M2071.108,1099.401c0,0 69.87,96.399 69.87,137.713c0,38.562 -31.308,69.87 -69.87,69.87c-38.562,0 -69.87,-31.308 -69.87,-69.87c0,-41.314 69.87,-137.713 69.87,-137.713Z" style="fill:#379cca;"/><path d="M2178.362,1580.661c0,0 69.87,96.399 69.87,137.713c0,38.562 -31.308,69.87 -69.87,69.87c-38.562,0 -69.87,-31.308 -69.87,-69.87c0,-41.314 69.87,-137.713 69.87,-137.713Z" style="fill:#379cca;"/><path d="M1929.13,1973.94c0,0 69.87,96.399 69.87,137.713c0,38.562 -31.308,69.87 -69.87,69.87c-38.562,0 -69.87,-31.308 -69.87,-69.87c0,-41.314 69.87,-137.713 69.87,-137.713Z" style="fill:#379cca;"/><path d="M299.742,1580.661c0,0 69.87,96.399 69.87,137.713c0,38.562 -31.308,69.87 -69.87,69.87c-38.562,0 -69.87,-31.308 -69.87,-69.87c0,-41.314 69.87,-137.713 69.87,-137.713Z" style="fill:#379cca;"/><path d="M68.103,1923.358c0,0 69.87,96.399 69.87,137.713c0,38.562 -31.308,69.87 -69.87,69.87c-38.562,0 -69.87,-31.308 -69.87,-69.87c0,-41.314 69.87,-137.713 69.87,-137.713Z" style="fill:#379cca;"/><path d="M68.103,1203.193c0,0 69.87,96.399 69.87,137.713c0,38.562 -31.308,69.87 -69.87,69.87c-38.562,0 -69.87,-31.308 -69.87,-69.87c0,-41.314 69.87,-137.713 69.87,-137.713Z" style="fill:#379cca;"/><path d="M721.906,487.26c0,0 69.87,96.399 69.87,137.713c0,38.562 -31.308,69.87 -69.87,69.87c-38.562,0 -69.87,-31.308 -69.87,-69.87c0,-41.314 69.87,-137.713 69.87,-137.713Z" style="fill:#379cca;"/><path d="M1539.446,534.174c0,0 69.87,96.399 69.87,137.713c0,38.562 -31.308,69.87 -69.87,69.87c-38.562,0 -69.87,-31.308 -69.87,-69.87c0,-41.314 69.87,-137.713 69.87,-137.713Z" style="fill:#379cca;"/></g></g></svg>