<?xml version="1.0" encoding="UTF-8" standalone="no"?><!DOCTYPE svg PUBLIC "-//W3C//DTD SVG 1.1//EN" "http://www.w3.org/Graphics/SVG/1.1/DTD/svg11.dtd"><svg width="100%" height="100%" viewBox="0 0 2250 2813" version="1.1" xmlns="http://www.w3.org/2000/svg" xmlns:xlink="http://www.w3.org/1999/xlink" xml:space="preserve" xmlns:serif="http://www.serif.com/" style="fill-rule:evenodd;clip-rule:evenodd;stroke-linecap:round;stroke-linejoin:round;stroke-miterlimit:1.5;"><rect id="SMOG" x="0" y="0" width="2250" height="2812.5" style="fill:none;"/><clipPath id="_clip1"><rect x="0" y="0" width="2250" height="2812.5"/></clipPath><g clip-path="url(#_clip1)"><g><path d="M971.2,961.495c-25.087,11.972 -53.383,18.71 -83.315,18.71c-103.077,0 -186.763,-79.905 -186.763,-178.326c0,-98.421 83.686,-178.326 186.763,-178.326c0.465,0 0.929,0.002 1.393,0.005c33.962,-66.656 115.377,-113.65 210.313,-113.65c116.111,0 211.998,70.295 225.579,160.884c8.307,-1.473 16.871,-2.244 25.622,-2.244c77.069,0 139.638,59.743 139.638,133.33c0,73.587 -62.57,133.33 -139.638,133.33c-36.898,0 -70.473,-13.695 -95.449,-36.046c-11.934,70.328 -77.169,124.163 -155.752,124.163c-52.916,0 -99.78,-24.411 -128.392,-61.83Z" style="fill:#919191;"/><path d="M1609.583,1837.373c-30.954,14.772 -65.868,23.085 -102.799,23.085c-127.183,0 -230.44,-98.592 -230.44,-220.03c0,-121.438 103.257,-220.03 230.44,-220.03c0.573,0 1.146,0.002 1.719,0.006c41.904,-82.245 142.36,-140.228 259.498,-140.228c143.265,0 261.577,86.735 278.334,198.509c10.249,-1.818 20.816,-2.768 31.614,-2.768c95.092,0 172.295,73.715 172.295,164.512c0,90.796 -77.203,164.512 -172.295,164.512c-45.528,0 -86.954,-16.897 -117.771,-44.476c-14.724,86.775 -95.216,153.2 -192.177,153.2c-65.291,0 -123.114,-30.12 -158.418,-76.29Z" style="fill:#d0d0d0;"/><path d="M219.81,1476.827c-20.395,9.733 -43.399,15.211 -67.733,15.211c-83.799,0 -151.834,-64.961 -151.834,-144.975c0,-80.014 68.034,-144.975 151.834,-144.975c0.378,0 0.755,0.001 1.133,0.004c27.61,-54.19 93.799,-92.395 170.98,-92.395c94.396,0 172.35,57.149 183.391,130.795c6.753,-1.198 13.715,-1.824 20.83,-1.824c62.655,0 113.523,48.57 113.523,108.395c0,59.825 -50.868,108.395 -113.523,108.395c-29.997,0 -57.293,-11.133 -77.598,-29.305c-9.702,57.175 -62.737,100.941 -126.623,100.941c-43.019,0 -81.119,-19.845 -104.379,-50.267Z" style="fill:#d0d0d0;"/><g><g><g><ellipse cx="1095.777" cy="1507.916" rx="453.844" ry="365.227" style="fill:#ffc432;"/><path d="M1442.846,1934.541l-694.138,0c-35.174,-60.322 -53.692,-128.749 -53.692,-198.403c0,-219.003 179.575,-396.806 400.761,-396.806c221.186,0 400.761,177.803 400.761,396.806c0,69.654 -18.518,138.081 -53.692,198.403Z" style="fill:#2ac413;"/><clipPath id="_clip2"><path d="M1442.846,1934.541l-694.138,0c-35.174,-60.322 -53.692,-128.749 -53.692,-198.403c0,-219.003 179.575,-396.806 400.761,-396.806c221.186,0 400.761,177.803 400.761,396.806c0,69.654 -18.518,138.081 -53.692,198.403Z"/></clipPath><g clip-path="url(#_clip2)"><path d="M1341.469,1934.541c-1.451,-1.903 -2.873,-3.853 -4.265,-5.848c-24.451,-35.055 -32.488,-74.295 -23.14,-100.553c3.268,-9.18 8.661,-16.773 16.219,-22.045c10.558,-7.365 23.906,-9.199 38.205,-6.3c25.219,5.113 53.397,24.951 74.456,55.142c9.005,12.911 15.784,26.389 20.288,39.578c21.904,-49.822 33.305,-103.722 33.305,-158.377c0,-17.541 -1.152,-34.818 -3.385,-51.76c-6.205,-47.075 -20.757,-91.568 -42.134,-131.972l-0,0.243c0,46.52 -39.562,84.288 -88.291,84.288l-16.579,0c-16.004,5.344 -33.124,8.239 -50.915,8.239c-17.791,0 -34.912,-2.895 -50.915,-8.239l-308.552,0c-16.004,5.344 -33.124,8.239 -50.915,8.239c-17.791,0 -34.912,-2.895 -50.915,-8.239l-16.352,0c-42.17,0 -77.474,-28.285 -86.215,-66.049c-16.394,35.349 -27.694,73.487 -32.967,113.49c-2.233,16.942 -3.385,34.219 -3.385,51.76c0,69.603 18.491,137.981 53.615,198.271l148.105,-0c-1.416,-1.861 -2.805,-3.767 -4.164,-5.716c-25.432,-36.461 -33.106,-77.45 -21.932,-103.648c3.325,-7.796 8.319,-14.282 15.011,-18.95c29.18,-20.353 79.662,1.532 112.661,48.843c2.517,3.608 4.86,7.261 7.028,10.94c13.801,23.416 20.511,47.87 19.858,68.531c-0.001,0.044 -0.003,0.088 -0.004,0.132l316.277,-0Z" style="fill:#ffc432;"/></g><circle cx="884.85" cy="1484.345" r="160.832" style="fill:#2ac413;"/><circle cx="1295.233" cy="1484.345" r="160.832" style="fill:#2ac413;"/><circle cx="884.85" cy="1484.345" r="123.919" style="fill:#ffc432;"/><circle cx="1295.233" cy="1484.345" r="123.919" style="fill:#ffc432;"/><path d="M715.039,1806.095c-29.18,20.353 -26.079,75.288 6.921,122.598c33,47.31 83.481,69.196 112.661,48.843c29.18,-20.353 26.079,-75.288 -6.921,-122.598c-33,-47.31 -83.481,-69.196 -112.661,-48.843Z" style="fill:#379cca;"/><path d="M1145.433,1536.463c-7.23,-9.989 -7.512,-14.644 -28.46,-5.548c-17.868,7.758 -16.951,10.841 -21.564,16.912c-14.404,-25.05 -45.893,-24.584 -49.287,-5.837" style="fill:none;stroke:#000;stroke-width:6.25px;"/><circle cx="1295.233" cy="1484.345" r="86.867" style="fill:#292929;"/><circle cx="884.85" cy="1484.345" r="86.867" style="fill:#292929;"/><circle cx="885.953" cy="1484.345" r="24.832" style="fill:#fff;"/><circle cx="1295.233" cy="1484.345" r="24.832" style="fill:#fff;"/><path d="M1451.019,1444.252l0,-60.18c0,-46.52 -39.562,-84.288 -88.291,-84.288l-545.145,0c-48.729,0 -88.291,37.768 -88.291,84.288l0,59.306c18.135,-68.951 80.948,-119.865 155.559,-119.865c36.222,0 69.663,12 96.562,32.239c36.246,-10.682 74.634,-16.419 114.365,-16.419c36.72,0 72.293,4.9 106.089,14.076c26.331,-18.818 58.566,-29.896 93.367,-29.896c74.925,0 137.953,51.345 155.786,120.739Z" style="fill:#757575;"/><path d="M1450.648,1381.407l0,163.246c0,45.049 -36.574,81.623 -81.623,81.623l-558.11,0c-45.049,0 -81.623,-36.574 -81.623,-81.623l0,-163.246c0,-45.049 36.574,-81.623 81.623,-81.623l558.11,0c45.049,0 81.623,36.574 81.623,81.623Z" style="fill:#d0d0d0;fill-opacity:0.5;"/><path d="M729.292,1384.072l0,168.577c0,46.52 39.562,84.288 88.291,84.288l545.145,0c48.729,0 88.291,-37.768 88.291,-84.288l0,-168.577c0,-46.52 -39.562,-84.288 -88.291,-84.288l-545.145,0c-48.729,0 -88.291,37.768 -88.291,84.288Z" style="fill:none;stroke:#000;stroke-width:18.75px;"/><path d="M724.019,1581.335l15.82,19.513c42.185,19.918 44.35,36.089 69.749,36.089l576.955,0c25.399,0 17.018,-3.38 64.476,-36.089l0,-19.513l-727,0Z"/><g><path d="M1175.729,1678.149c2.865,-7.37 4.419,-15.263 4.419,-23.469c0,-40.48 -37.805,-73.345 -84.371,-73.345c-46.565,0 -84.371,32.865 -84.371,73.345c0,8.206 1.554,16.099 4.419,23.469c11.269,-28.985 42.826,-49.876 79.952,-49.876c37.126,0 68.683,20.891 79.952,49.876Z" style="fill:#d0d0d0;"/><ellipse cx="1095.777" cy="1666.284" rx="84.371" ry="51.413" style="fill:#757575;"/><g><circle cx="1095.777" cy="1642.911" r="6.376" style="fill:#d0d0d0;"/><circle cx="1095.777" cy="1689.461" r="6.376" style="fill:#d0d0d0;"/><circle cx="1108.96" cy="1666.284" r="6.376" style="fill:#d0d0d0;"/><circle cx="1108.96" cy="1626.568" r="6.376" style="fill:#d0d0d0;"/><circle cx="1108.96" cy="1705.805" r="6.376" style="fill:#d0d0d0;"/><circle cx="1083.451" cy="1626.568" r="6.376" style="fill:#d0d0d0;"/><circle cx="1083.451" cy="1705.805" r="6.376" style="fill:#d0d0d0;"/><circle cx="1133.814" cy="1666.284" r="6.376" style="fill:#d0d0d0;"/><circle cx="1160.464" cy="1666.284" r="6.376" style="fill:#d0d0d0;"/><circle cx="1084.151" cy="1666.284" r="6.376" style="fill:#d0d0d0;"/><circle cx="1058.495" cy="1666.284" r="6.376" style="fill:#d0d0d0;"/><circle cx="1030.464" cy="1666.284" r="6.376" style="fill:#d0d0d0;"/><circle cx="1122.143" cy="1642.911" r="6.376" style="fill:#d0d0d0;"/><circle cx="1122.143" cy="1689.461" r="6.376" style="fill:#d0d0d0;"/><circle cx="1147.348" cy="1642.911" r="6.376" style="fill:#d0d0d0;"/><circle cx="1147.348" cy="1689.461" r="6.376" style="fill:#d0d0d0;"/><circle cx="1071.174" cy="1642.911" r="6.376" style="fill:#d0d0d0;"/><circle cx="1071.174" cy="1689.461" r="6.376" style="fill:#d0d0d0;"/><circle cx="1045.762" cy="1642.911" r="6.376" style="fill:#d0d0d0;"/><circle cx="1045.762" cy="1689.461" r="6.376" style="fill:#d0d0d0;"/><path d="M703.658,1818.099c-5.722,-26.84 -8.642,-54.303 -8.642,-81.961c0,-17.541 1.152,-34.818 3.385,-51.76c77.376,112.514 226.398,188.765 397.376,188.765c76.927,0 149.409,-15.435 212.921,-42.664c2.222,-0.953 4.433,-1.92 6.632,-2.901c-2.313,-5.085 -3.605,-10.759 -3.605,-16.741c0,-21.828 17.207,-39.549 38.401,-39.549c13.999,0 26.259,7.731 32.969,19.271c44.526,-29.355 82.002,-65.384 110.057,-106.181c2.233,16.942 3.385,34.219 3.385,51.76c0,27.657 -2.92,55.121 -8.642,81.961c-8.689,40.755 -23.842,80.072 -45.05,116.442l-588.265,0c0.794,-23.933 -8.308,-52.976 -26.881,-79.603c-33,-47.31 -83.481,-69.196 -112.661,-48.843c-4.589,3.201 -8.379,7.257 -11.381,12.004Z" style="fill:#ffc432;"/></g></g><path d="M983.945,1549.277c-29.84,-19.372 -79.567,4.179 -110.975,52.56c-31.409,48.381 -32.682,103.388 -2.842,122.76c29.84,19.372 79.567,-4.179 110.975,-52.56c31.409,-48.381 32.682,-103.388 2.842,-122.76Z" style="fill:#379cca;"/><path d="M1313.986,1729.1c30.811,-17.788 32.409,-72.787 3.568,-122.741c-28.841,-49.954 -77.271,-76.069 -108.081,-58.28c-30.811,17.788 -32.409,72.787 -3.568,122.741c28.841,49.954 77.271,76.069 108.081,58.28Z" style="fill:#379cca;"/><path d="M1476.515,1806.095c29.18,20.353 26.079,75.288 -6.921,122.598c-33,47.31 -83.481,69.196 -112.661,48.843c-29.18,-20.353 -26.079,-75.288 6.921,-122.598c33,-47.31 83.481,-69.196 112.661,-48.843Z" style="fill:#379cca;"/></g><path d="M1373.995,1841.811c-6.556,5.367 -14.851,8.575 -23.868,8.575c-15.386,0 -28.67,-9.339 -34.796,-22.808c24.002,-10.707 46.675,-23.114 67.765,-37.019c3.449,5.931 5.432,12.868 5.432,20.278c0,8.455 -2.582,16.293 -6.976,22.724c-2.124,3.108 -4.672,5.888 -7.556,8.249Z" style="fill:#ffc432;"/></g><ellipse cx="954.902" cy="1845.112" rx="100.259" ry="68.551" style="fill:#ffc432;"/></g><path d="M1908.883,2151.873c-13.524,6.899 -28.777,10.781 -44.912,10.781c-55.565,0 -100.677,-46.045 -100.677,-102.759c0,-56.714 45.112,-102.759 100.677,-102.759c0.251,0 0.501,0.001 0.751,0.003c18.308,-38.41 62.196,-65.49 113.373,-65.49c62.592,0 114.281,40.507 121.602,92.708c4.478,-0.849 9.094,-1.293 13.812,-1.293c41.545,0 75.274,34.427 75.274,76.83c0,42.404 -33.729,76.83 -75.274,76.83c-19.891,0 -37.99,-7.891 -51.453,-20.771c-6.433,40.526 -41.599,71.547 -83.961,71.547c-28.525,0 -53.788,-14.066 -69.212,-35.629Z" style="fill:#919191;"/><path d="M355.921,2239.242c-28.94,12.266 -61.583,19.169 -96.111,19.169c-118.909,0 -215.448,-81.868 -215.448,-182.707c0,-100.839 96.539,-182.707 215.448,-182.707c0.536,0 1.072,0.002 1.607,0.005c39.178,-68.294 133.098,-116.442 242.616,-116.442c133.945,0 244.56,72.022 260.226,164.836c9.583,-1.51 19.462,-2.299 29.557,-2.299c88.906,0 161.086,61.211 161.086,136.606c0,75.395 -72.18,136.606 -161.086,136.606c-42.566,0 -81.297,-14.031 -110.109,-36.932c-13.767,72.055 -89.022,127.213 -179.674,127.213c-61.043,0 -115.105,-25.01 -148.112,-63.349Z" style="fill:#919191;"/><path d="M1097.738,1752.4c-1.162,119.266 0.944,118.745 1.44,130.847" style="fill:#757575;stroke:#000;stroke-width:6.25px;"/></g></g></svg>