<?xml version="1.0" encoding="UTF-8" standalone="no"?><!DOCTYPE svg PUBLIC "-//W3C//DTD SVG 1.1//EN" "http://www.w3.org/Graphics/SVG/1.1/DTD/svg11.dtd"><svg width="100%" height="100%" viewBox="0 0 2250 2813" version="1.1" xmlns="http://www.w3.org/2000/svg" xmlns:xlink="http://www.w3.org/1999/xlink" xml:space="preserve" xmlns:serif="http://www.serif.com/" style="fill-rule:evenodd;clip-rule:evenodd;stroke-linecap:round;stroke-linejoin:round;stroke-miterlimit:1.5;"><rect id="SNOWY" x="-0" y="0" width="2250" height="2812.5" style="fill:none;"/><g><ellipse cx="1135.818" cy="2302.255" rx="781.113" ry="448.817" style="fill:#fff;"/><path d="M1505.49,1934.049l-739.343,0c-37.465,-40.628 -57.188,-86.715 -57.188,-133.628c0,-147.502 191.27,-267.256 426.86,-267.256c235.59,0 426.86,119.753 426.86,267.256c0,46.913 -19.724,93 -57.188,133.628Z" style="fill:#2ac413;"/><circle cx="911.155" cy="1687.622" r="171.306" style="fill:#2ac413;"/><ellipse cx="911.155" cy="1853.438" rx="87.42" ry="21.278" style="fill:#ecb1d5;"/><circle cx="1348.263" cy="1687.622" r="171.306" style="fill:#2ac413;"/><ellipse cx="1366.297" cy="1853.438" rx="87.42" ry="21.278" style="fill:#ecb1d5;"/><circle cx="911.155" cy="1687.622" r="131.99" style="fill:#ffc432;"/><circle cx="1348.263" cy="1687.622" r="131.99" style="fill:#ffc432;"/><path d="M1246.476,1934.049l-221.317,0c-11.215,-16.339 -17.119,-34.874 -17.119,-53.741c0,-59.321 57.255,-107.482 127.777,-107.482c70.522,0 127.777,48.161 127.777,107.482c0,18.867 -5.904,37.402 -17.119,53.741Z" style="fill:#ffc432;"/><path d="M502.405,1902.276c-31.08,21.679 -27.777,80.191 7.372,130.582c35.149,50.391 88.918,73.702 119.998,52.024c31.08,-21.679 27.777,-80.191 -7.372,-130.582c-35.149,-50.391 -88.918,-73.702 -119.998,-52.024Z" style="fill:#2ac413;"/><path d="M1751.248,1902.276c31.08,21.679 27.777,80.191 -7.372,130.582c-35.149,50.391 -88.918,73.702 -119.998,52.024c-31.08,-21.679 -27.777,-80.191 7.372,-130.582c35.149,-50.391 88.918,-73.702 119.998,-52.024Z" style="fill:#2ac413;"/><circle cx="1348.263" cy="1687.622" r="90.015" style="fill:#292929;"/><circle cx="911.155" cy="1687.622" r="90.015" style="fill:#292929;"/><circle cx="1348.263" cy="1714.072" r="26.449" style="fill:#fff;"/><circle cx="911.155" cy="1714.072" r="26.449" style="fill:#fff;"/><g><path d="M884.89,1847.541l-10.725,11.919" style="fill:none;stroke:#000;stroke-width:6.25px;"/><path d="M912.552,1849.65l-9.984,12.298" style="fill:none;stroke:#000;stroke-width:6.25px;"/><path d="M951.023,1850.985l-13.222,14.572" style="fill:none;stroke:#000;stroke-width:6.25px;"/><path d="M1337.238,1850.546l-7.697,10.096" style="fill:none;stroke:#000;stroke-width:6.25px;"/><path d="M1372.175,1849.511l-7.254,14.802" style="fill:none;stroke:#000;stroke-width:6.25px;"/><path d="M1405.681,1849.112l-5.342,11.022" style="fill:none;stroke:#000;stroke-width:6.25px;"/></g><path d="M1067.766,1743.492c-1.363,-1.883 -0.941,-4.519 0.942,-5.882c1.883,-1.363 4.519,-0.941 5.882,0.942c1.874,2.59 3.293,4.837 4.714,6.599c0.917,1.136 1.759,2.052 2.961,2.478c1.326,0.471 2.967,0.357 5.245,-0.15c3.096,-0.689 7.048,-2.13 12.304,-4.412c17.642,-7.66 16.737,-10.704 21.292,-16.698c0.854,-1.124 2.214,-1.745 3.623,-1.655c1.409,0.09 2.679,0.88 3.382,2.104c8.162,14.195 21.998,19.959 32.561,18.279c6.106,-0.971 11.027,-4.572 12.139,-10.712c0.414,-2.288 2.608,-3.809 4.896,-3.394c2.288,0.414 3.809,2.608 3.394,4.896c-1.781,9.835 -9.327,15.976 -19.106,17.531c-11.815,1.879 -27.133,-3.221 -37.582,-16.957c-2.843,4.207 -6.276,7.836 -21.245,14.336c-12.76,5.54 -19.346,6.327 -23.723,4.774c-2.173,-0.771 -3.965,-2.072 -5.642,-3.896c-1.863,-2.025 -3.611,-4.827 -6.039,-8.181Z"/><g><circle cx="1135.818" cy="2277.142" r="85.138" style="fill:#292929;"/><g><ellipse cx="1106.713" cy="2277.142" rx="14.625" ry="25.421" style="fill:#fff;"/><ellipse cx="1164.923" cy="2277.142" rx="14.625" ry="25.421" style="fill:#fff;"/></g></g><g><circle cx="1135.818" cy="2475.623" r="85.138" style="fill:#292929;"/><g><ellipse cx="1106.713" cy="2475.623" rx="14.625" ry="25.421" style="fill:#fff;"/><ellipse cx="1164.923" cy="2475.623" rx="14.625" ry="25.421" style="fill:#fff;"/></g></g><path d="M1555.429,1850.332c24.986,18.386 38.867,38.724 38.867,60.108c0,82.143 -204.808,148.832 -457.073,148.832c-252.266,0 -457.073,-66.689 -457.073,-148.832c0,-21.385 13.881,-41.722 38.867,-60.108c70.988,40.629 231.615,69.007 418.207,69.007c186.591,0 347.218,-28.378 418.207,-69.007Z" style="fill:#d1271d;"/><path d="M856.699,2355.156c-21.244,6.743 -156.079,1.945 -176.55,-4.24c-78.632,-23.757 0.739,-136.288 37.529,-258.056c36.79,-121.768 130.497,-201.341 209.129,-177.584c20.471,6.185 37.915,18.767 51.871,36.145c-49.246,22.515 -99.836,91.842 -127.048,181.909c-27.212,90.067 -23.472,175.809 5.068,221.825Z" style="fill:#d1271d;"/><circle cx="145.452" cy="1277.192" r="49.145" style="fill:#fff;"/><circle cx="388.675" cy="1033.969" r="49.145" style="fill:#fff;"/><circle cx="152.223" cy="797.518" r="49.145" style="fill:#fff;"/><circle cx="476.108" cy="473.633" r="49.145" style="fill:#fff;"/><circle cx="983.517" cy="473.633" r="49.145" style="fill:#fff;"/><circle cx="759.733" cy="705.563" r="49.145" style="fill:#fff;"/><circle cx="563.153" cy="1356.461" r="49.145" style="fill:#fff;"/><circle cx="1668.005" cy="1356.461" r="49.145" style="fill:#fff;"/><circle cx="1475.185" cy="877.005" r="49.145" style="fill:#fff;"/><circle cx="1086.673" cy="926.15" r="49.145" style="fill:#fff;"/><circle cx="1211.647" cy="110.573" r="49.145" style="fill:#fff;"/><circle cx="1422.81" cy="456.666" r="49.145" style="fill:#fff;"/><circle cx="1763.023" cy="796.878" r="49.145" style="fill:#fff;"/><circle cx="1948.37" cy="456.666" r="49.145" style="fill:#fff;"/><circle cx="1749.712" cy="258.008" r="49.145" style="fill:#fff;"/><circle cx="704.592" cy="208.863" r="49.145" style="fill:#fff;"/><circle cx="2100.748" cy="1013.438" r="49.145" style="fill:#fff;"/><circle cx="1919.532" cy="1194.654" r="49.145" style="fill:#fff;"/><circle cx="2174.142" cy="1449.265" r="49.145" style="fill:#fff;"/><circle cx="1968.082" cy="1655.324" r="49.145" style="fill:#fff;"/><circle cx="2186.921" cy="1874.164" r="49.145" style="fill:#fff;"/><circle cx="330.192" cy="1606.179" r="49.145" style="fill:#fff;"/><circle cx="53.725" cy="1882.647" r="49.145" style="fill:#fff;"/><circle cx="198.203" cy="2217.412" r="49.145" style="fill:#fff;"/><circle cx="2067.539" cy="2217.412" r="49.145" style="fill:#fff;"/><path d="M668.879,2329.181c-5.82,41.228 0.308,41.516 -21.926,75.903" style="fill:none;stroke:#000;stroke-width:6.25px;"/><path d="M719.573,2337.888c-11.701,47.785 -18.013,44.244 -30.52,91.259" style="fill:none;stroke:#000;stroke-width:6.25px;"/><path d="M770.262,2340.764c-0.911,7.179 -7.289,57.458 -17.069,88.836" style="fill:none;stroke:#000;stroke-width:6.25px;"/><path d="M817.671,2345.76c-11.834,43.459 -7.096,42.711 0.606,87.294" style="fill:none;stroke:#000;stroke-width:6.25px;"/><path d="M841.098,1922.24c-59.127,108.942 -48.764,112.757 -81.425,193.854c-30.666,76.142 -40.539,71.557 -58.505,151.633" style="fill:none;stroke:#000;stroke-width:6.25px;"/><path d="M879.388,1944.854c-46.358,79.007 -52.716,75.205 -79.146,163.797" style="fill:none;stroke:#000;stroke-width:6.25px;"/><path d="M783.566,2186.662c-10.774,35.961 -9.862,35.369 -18.293,71.479" style="fill:none;stroke:#000;stroke-width:6.25px;"/><path d="M711.649,1911.517c24.625,29.185 27.386,24.382 64.281,37.468" style="fill:none;stroke:#000;stroke-width:6.25px;"/><path d="M927.592,2001.945c122.762,23.031 244.588,22.561 265.939,22.479" style="fill:none;stroke:#000;stroke-width:6.25px;"/><path d="M1010.104,1969.922c72.837,9.462 72.307,7.55 145.883,11.635" style="fill:none;stroke:#000;stroke-width:6.25px;"/><path d="M764.375,1903.115l19.628,6.561" style="fill:none;stroke:#000;stroke-width:6.25px;"/><g><circle cx="923.819" cy="1632.482" r="15.216" style="fill:#fff;"/><circle cx="1359.496" cy="1632.482" r="15.216" style="fill:#fff;"/></g><g><path d="M857.872,1426.143c-16.196,-25.431 -19.317,-154.481 -19.317,-184.06c0,-113.616 126.88,-104.938 290.399,-104.938c163.519,0 302.152,-8.678 302.152,104.938c0,29.579 -14.874,158.629 -31.07,184.06c-46.015,-56.197 -150.133,-95.448 -271.082,-95.448c-120.949,0 -225.067,39.251 -271.082,95.448Z" style="fill:#292929;"/><path d="M875.008,1452.026c-15.189,-14.707 -23.627,-30.975 -23.627,-48.081c0,-65.706 124.501,-119.051 277.85,-119.051c153.35,0 277.85,53.345 277.85,119.051c0,17.106 -8.438,33.374 -23.627,48.081c-43.153,-32.5 -140.797,-55.199 -254.224,-55.199c-113.427,0 -211.07,22.699 -254.224,55.199Z" style="fill:#d1271d;"/><path d="M765.954,1629.673c-21.762,-23.34 -33.852,-49.158 -33.852,-76.305c0,-104.276 178.382,-188.935 398.099,-188.935c219.717,0 398.099,84.659 398.099,188.935c0,27.147 -12.09,52.964 -33.852,76.305c-61.829,-51.577 -201.731,-87.601 -364.247,-87.601c-162.516,0 -302.418,36.024 -364.247,87.601Z" style="fill:#292929;"/></g><path d="M1001.385,2744.438c-367.143,-36.656 -646.679,-220.811 -646.679,-442.183c0,-68.22 26.547,-132.906 74.024,-190.829l1.764,0.882c0,0 3.396,452.645 570.891,632.13Z" style="fill:#c1dadd;"/></g></svg>