<?xml version="1.0" encoding="UTF-8" standalone="no"?><!DOCTYPE svg PUBLIC "-//W3C//DTD SVG 1.1//EN" "http://www.w3.org/Graphics/SVG/1.1/DTD/svg11.dtd"><svg width="100%" height="100%" viewBox="0 0 2250 2813" version="1.1" xmlns="http://www.w3.org/2000/svg" xmlns:xlink="http://www.w3.org/1999/xlink" xml:space="preserve" xmlns:serif="http://www.serif.com/" style="fill-rule:evenodd;clip-rule:evenodd;stroke-linecap:round;stroke-linejoin:round;stroke-miterlimit:1.5;"><rect id="SQUALL" x="0" y="0" width="2250" height="2812.5" style="fill:none;"/><clipPath id="_clip1"><rect x="0" y="0" width="2250" height="2812.5"/></clipPath><g clip-path="url(#_clip1)"><g><path d="M877.082,621.805c-37.053,16.485 -78.847,25.762 -123.055,25.762c-152.244,0 -275.847,-110.024 -275.847,-245.543c0,-135.519 123.603,-245.543 275.847,-245.543c0.686,-0 1.372,0.002 2.058,0.007c50.161,-91.781 170.411,-156.488 310.631,-156.488c171.495,0 313.12,96.792 333.179,221.527c12.269,-2.029 24.918,-3.089 37.843,-3.089c113.83,0 206.245,82.263 206.245,183.587c0,101.325 -92.415,183.587 -206.245,183.587c-54.498,0 -104.088,-18.857 -140.977,-49.634c-17.626,96.837 -113.978,170.964 -230.044,170.964c-78.156,0 -147.374,-33.612 -189.633,-85.136Z" style="fill:#d0d0d0;"/><path d="M1363.575,1246.811c0,0 -72.841,100.498 -72.841,143.568c0,40.202 32.639,72.841 72.841,72.841c40.202,0 72.841,-32.639 72.841,-72.841c0,-43.071 -72.841,-143.568 -72.841,-143.568Z" style="fill:#379cca;"/><path d="M1571.757,976.712c0,0 -72.841,100.498 -72.841,143.568c0,40.202 32.639,72.841 72.841,72.841c40.202,0 72.841,-32.639 72.841,-72.841c0,-43.071 -72.841,-143.568 -72.841,-143.568Z" style="fill:#379cca;"/><circle cx="1071.506" cy="1246.811" r="53.494" style="fill:#fff;"/><circle cx="1071.506" cy="1516.714" r="53.494" style="fill:#fff;"/><g><path d="M708.344,1409.921l-0.547,-206.876l58.595,56.629l70.756,-282.962l-40.629,422.558l-42.832,-86.493l-45.343,97.144Z" style="fill:#ffc432;"/><path d="M746.586,1275.008c-3.503,9.138 -3.984,10.733 -9.264,22.322c-0.555,1.218 -6.23,13.674 -7.192,15.129c0.166,-0.66 4.316,-20.079 11.973,-42.894c0.055,-0.163 0.439,-2.378 2.483,-2.906c1.313,-0.339 2.321,0.223 2.492,0.319c1.097,0.613 1.01,0.792 25.482,28.181c4.472,-19.291 19.331,-83.386 19.356,-83.427c0.037,-0.06 0.598,-0.495 0.504,0.084c-0.404,2.492 -12.962,72.881 -15.993,89.122c-0.297,1.592 -2.259,2.366 -3.748,1.621c-0.95,-0.476 -0.878,-0.629 -26.094,-27.551Z" style="fill:#f9f07b;"/></g><g><path d="M707.249,760.107l0.547,206.876l-58.595,-56.629l-70.756,282.962l40.629,-422.558l42.832,86.493l45.343,-97.144Z" style="fill:#ffc432;"/><path d="M669.007,895.021c3.503,-9.138 3.984,-10.733 9.264,-22.322c0.555,-1.218 6.23,-13.674 7.192,-15.129c-0.166,0.66 -4.316,20.079 -11.973,42.894c-0.055,0.163 -0.439,2.378 -2.483,2.906c-1.313,0.339 -2.321,-0.223 -2.492,-0.319c-1.097,-0.613 -1.01,-0.792 -25.482,-28.181c-4.472,19.291 -19.331,83.386 -19.356,83.427c-0.037,0.06 -0.598,0.495 -0.504,-0.084c0.404,-2.492 12.962,-72.881 15.993,-89.122c0.297,-1.592 2.259,-2.366 3.748,-1.621c0.95,0.476 0.878,0.629 26.094,27.551Z" style="fill:#f9f07b;"/></g><path d="M1100.035,2753.693l535.27,0c27.124,-47.047 41.403,-100.414 41.403,-154.739c0,-170.805 -138.475,-309.477 -309.038,-309.477c-170.563,0 -309.038,138.672 -309.038,309.477c0,54.325 14.28,107.692 41.403,154.739Z" style="fill:#2ac413;"/><path d="M656.247,2753.846l804.77,0c40.78,-69.936 62.249,-149.269 62.249,-230.025c0,-253.908 -208.196,-460.049 -464.634,-460.049c-256.439,0 -464.634,206.141 -464.634,460.049c0,80.756 21.469,160.088 62.249,230.025Z" style="fill:#2ac413;"/><circle cx="1303.177" cy="2231.897" r="186.465" style="fill:#2ac413;"/><ellipse cx="1303.177" cy="2438.826" rx="95.157" ry="36.873" style="fill:#ecb1d5;"/><circle cx="827.387" cy="2231.897" r="186.465" style="fill:#2ac413;"/><ellipse cx="807.757" cy="2438.826" rx="95.157" ry="36.873" style="fill:#ecb1d5;"/><circle cx="1303.177" cy="2231.897" r="143.67" style="fill:#ffc432;"/><circle cx="827.387" cy="2231.897" r="143.67" style="fill:#ffc432;"/><path d="M869.952,2753.226l346.793,0c17.573,-28.126 26.825,-60.032 26.825,-92.509c0,-102.114 -89.716,-185.018 -200.221,-185.018c-110.505,0 -200.221,82.904 -200.221,185.018c0,32.477 9.251,64.383 26.824,92.509Z" style="fill:#ffc432;"/><path d="M1647.381,2604.928c33.83,23.597 30.235,87.287 -8.024,142.138c-38.259,54.851 -96.787,80.225 -130.617,56.627c-33.83,-23.597 -30.235,-87.287 8.024,-142.138c38.259,-54.851 96.787,-80.225 130.617,-56.627Z" style="fill:#2ac413;"/><path d="M1302.249,2604.928c33.83,23.597 30.235,87.287 -8.024,142.138c-38.259,54.851 -96.787,80.225 -130.617,56.627c-33.83,-23.597 -30.235,-87.287 8.024,-142.138c38.259,-54.851 96.787,-80.225 130.617,-56.627Z" style="fill:#2ac413;"/><path d="M786.75,2604.928c33.83,23.597 30.235,87.287 -8.024,142.138c-38.259,54.851 -96.787,80.225 -130.617,56.627c-33.83,-23.597 -30.235,-87.287 8.024,-142.138c38.259,-54.851 96.787,-80.225 130.617,-56.627Z" style="fill:#2ac413;"/><path d="M1128.992,2290.022c-8.382,11.581 -8.71,16.978 -32.997,6.432c-20.716,-8.995 -19.653,-12.569 -25.001,-19.608c-16.7,29.043 -53.207,28.502 -57.143,6.767" style="fill:none;stroke:#000;stroke-width:6.25px;"/><circle cx="827.387" cy="2231.897" r="100.712" style="fill:#292929;"/><circle cx="1303.177" cy="2231.897" r="100.712" style="fill:#292929;"/><circle cx="1274.386" cy="2260.687" r="28.79" style="fill:#fff;"/><circle cx="797.667" cy="2260.687" r="28.79" style="fill:#fff;"/><circle cx="865.347" cy="2196.993" r="16.563" style="fill:#fff;"/><circle cx="1339.58" cy="2196.993" r="16.563" style="fill:#fff;"/><g><path d="M1331.766,2428.608l11.674,20.654" style="fill:none;stroke:#000;stroke-width:6.25px;"/><path d="M1301.656,2432.263l10.868,21.312" style="fill:none;stroke:#000;stroke-width:6.25px;"/><path d="M1259.78,2434.575l14.392,25.252" style="fill:none;stroke:#000;stroke-width:6.25px;"/><path d="M839.388,2433.814l8.378,17.496" style="fill:none;stroke:#000;stroke-width:6.25px;"/><path d="M801.359,2432.022l7.896,25.651" style="fill:none;stroke:#000;stroke-width:6.25px;"/><path d="M764.888,2431.329l5.815,19.1" style="fill:none;stroke:#000;stroke-width:6.25px;"/></g><path d="M1161.508,875.303c-28.989,13.834 -61.687,21.62 -96.274,21.62c-119.111,0 -215.814,-92.335 -215.814,-206.065c0,-113.73 96.703,-206.065 215.814,-206.065c0.537,-0 1.074,0.002 1.61,0.006c39.244,-77.025 133.325,-131.328 243.028,-131.328c134.172,0 244.975,81.23 260.669,185.91c9.599,-1.703 19.495,-2.593 29.607,-2.593c89.057,0 161.359,69.037 161.359,154.07c0,85.034 -72.303,154.07 -161.359,154.07c-42.638,0 -81.435,-15.825 -110.296,-41.654c-13.79,81.267 -89.173,143.476 -179.979,143.476c-61.147,0 -115.3,-28.208 -148.363,-71.448Z" style="fill:#fff;"/></g></g></svg>