<?xml version="1.0" encoding="UTF-8" standalone="no"?><!DOCTYPE svg PUBLIC "-//W3C//DTD SVG 1.1//EN" "http://www.w3.org/Graphics/SVG/1.1/DTD/svg11.dtd"><svg width="100%" height="100%" viewBox="0 0 2250 2813" version="1.1" xmlns="http://www.w3.org/2000/svg" xmlns:xlink="http://www.w3.org/1999/xlink" xml:space="preserve" xmlns:serif="http://www.serif.com/" style="fill-rule:evenodd;clip-rule:evenodd;stroke-linecap:round;stroke-linejoin:round;stroke-miterlimit:1.5;"><rect id="SQUALL" x="0" y="0" width="2250" height="2812.5" style="fill:none;"/><g><g><path d="M996.664,1390.378c0,-34.249 57.505,-62.056 128.336,-62.056c70.83,0 128.336,27.806 128.336,62.056c35.415,-29.661 113.969,-39.839 175.31,-22.714c61.341,17.125 82.389,55.109 46.974,84.77c61.341,-17.125 139.895,-6.947 175.31,22.714c35.415,29.661 14.367,67.645 -46.974,84.77c70.83,0 128.336,27.806 128.336,62.056c0,34.249 -57.505,62.056 -128.336,62.056c61.341,17.125 82.389,55.109 46.974,84.77c-35.415,29.661 -113.969,39.839 -175.31,22.714c35.415,29.661 14.367,67.645 -46.974,84.77c-61.341,17.125 -139.895,6.947 -175.31,-22.714c0,34.249 -57.505,62.056 -128.336,62.056c-70.83,0 -128.336,-27.806 -128.336,-62.056c-35.415,29.661 -113.969,39.839 -175.31,22.714c-61.341,-17.125 -82.389,-55.109 -46.974,-84.77c-61.341,17.125 -139.895,6.947 -175.31,-22.714c-35.415,-29.661 -14.367,-67.645 46.974,-84.77c-70.83,0 -128.336,-27.806 -128.336,-62.056c0,-34.249 57.505,-62.056 128.336,-62.056c-61.341,-17.125 -82.389,-55.109 -46.974,-84.77c35.415,-29.661 113.969,-39.839 175.31,-22.714c-35.415,-29.661 -14.367,-67.645 46.974,-84.77c61.341,-17.125 139.895,-6.947 175.31,22.714Z" style="fill:#f6f6f6;"/><path d="M1419.088,1636.155l-588.176,0c-29.805,-47.664 -45.496,-101.733 -45.496,-156.771c0,-173.048 152.162,-313.542 339.583,-313.542c187.421,0 339.583,140.493 339.583,313.542c0,55.038 -15.691,109.106 -45.496,156.771Z" style="fill:#2ac413;"/><circle cx="945.833" cy="1292.926" r="127.083" style="fill:#2ac413;"/><circle cx="1295.103" cy="1292.926" r="127.083" style="fill:#2ac413;"/><circle cx="945.833" cy="1292.926" r="68.75" style="fill:#ffc432;"/><circle cx="1295.103" cy="1292.926" r="68.75" style="fill:#ffc432;"/><ellipse cx="1295.103" cy="1292.926" rx="48.958" ry="23.958"/><ellipse cx="945.833" cy="1292.926" rx="48.958" ry="23.958"/><path d="M1297.303,1636.155l-344.606,0c-17.462,-20.428 -26.655,-43.6 -26.655,-67.188c0,-74.164 89.15,-134.375 198.958,-134.375c109.808,0 198.958,60.211 198.958,134.375c0,23.588 -9.193,46.76 -26.655,67.187Z" style="fill:#ffc432;"/><path d="M1198.715,1372.429c-27.261,15.203 -29.075,21.863 -56.037,6.607c-18.82,-10.649 -48.821,17.88 -74.442,2.362c-17.507,-10.604 -17.905,-8.456 -36.166,-17.08" style="fill:none;stroke:#000;stroke-width:6.25px;"/><path d="M945.833,1292.926l-16.146,8.932l-16.146,-8.932l16.146,-8.932l16.146,8.932Z" style="fill:#f6f6f6;"/><path d="M1295.103,1292.926l-16.146,8.932l-16.146,-8.932l16.146,-8.932l16.146,8.932Z" style="fill:#f6f6f6;"/><path d="M891.563,1505.252c23.813,19.493 13.504,51.551 -23.007,71.544c-36.511,19.993 -85.487,20.399 -109.3,0.906c-23.813,-19.493 -13.504,-51.551 23.007,-71.544c36.511,-19.993 85.487,-20.399 109.3,-0.906Z" style="fill:#2ac413;"/><path d="M780.645,1510.58c32.357,-3.682 71.147,42.652 86.568,103.404c15.421,60.752 1.672,113.064 -30.685,116.746c-32.357,3.682 -71.147,-42.652 -86.568,-103.404c-15.421,-60.752 -1.672,-113.064 30.685,-116.746Z" style="fill:#2ac413;"/><path d="M881.636,1714.521c-2.691,6.724 -12.724,10.775 -22.39,9.041c-9.666,-1.734 -15.329,-8.601 -12.638,-15.325c2.691,-6.724 12.724,-10.775 22.39,-9.041c9.666,1.734 15.329,8.601 12.638,15.325Z" style="fill:#2ac413;"/><path d="M807.86,1731.04c-2.691,6.724 -12.724,10.775 -22.39,9.041c-9.666,-1.734 -15.329,-8.601 -12.638,-15.325c2.691,-6.724 12.724,-10.775 22.39,-9.041c9.666,1.734 15.329,8.601 12.638,15.325Z" style="fill:#2ac413;"/><path d="M871.056,1734.517c-2.691,6.724 -12.724,10.775 -22.39,9.041c-9.666,-1.734 -15.329,-8.601 -12.638,-15.325c2.691,-6.724 12.724,-10.775 22.39,-9.041c9.666,1.734 15.329,8.601 12.638,15.325Z" style="fill:#2ac413;"/><path d="M844.22,1743.622c-2.691,6.724 -12.724,10.775 -22.39,9.041c-9.666,-1.734 -15.329,-8.601 -12.638,-15.325c2.691,-6.724 12.724,-10.775 22.39,-9.041c9.666,1.734 15.329,8.601 12.638,15.325Z" style="fill:#2ac413;"/><path d="M801.607,1714.521c-2.691,6.724 -12.724,10.775 -22.39,9.041c-9.666,-1.734 -15.329,-8.601 -12.638,-15.325c2.691,-6.724 12.724,-10.775 22.39,-9.041c9.666,1.734 15.329,8.601 12.638,15.325Z" style="fill:#2ac413;"/><path d="M820.278,1702.841c21.983,-2.365 41.547,2.862 43.661,11.667c2.114,8.805 -14.018,17.873 -36.002,20.239c-21.983,2.365 -41.547,-2.862 -43.661,-11.667c-2.114,-8.805 14.018,-17.873 36.002,-20.239Z" style="fill:#2ac413;"/><path d="M1358.437,1505.252c-23.813,19.493 -13.504,51.551 23.007,71.544c36.511,19.993 85.487,20.399 109.3,0.906c23.813,-19.493 13.504,-51.551 -23.007,-71.544c-36.511,-19.993 -85.487,-20.399 -109.3,-0.906Z" style="fill:#2ac413;"/><path d="M1469.355,1510.58c-32.357,-3.682 -71.147,42.652 -86.568,103.404c-15.421,60.752 -1.672,113.064 30.685,116.746c32.357,3.682 71.147,-42.652 86.568,-103.404c15.421,-60.752 1.672,-113.064 -30.685,-116.746Z" style="fill:#2ac413;"/><path d="M1368.364,1714.521c2.691,6.724 12.724,10.775 22.39,9.041c9.666,-1.734 15.329,-8.601 12.638,-15.325c-2.691,-6.724 -12.724,-10.775 -22.39,-9.041c-9.666,1.734 -15.329,8.601 -12.638,15.325Z" style="fill:#2ac413;"/><path d="M1442.14,1731.04c2.691,6.724 12.724,10.775 22.39,9.041c9.666,-1.734 15.329,-8.601 12.638,-15.325c-2.691,-6.724 -12.724,-10.775 -22.39,-9.041c-9.666,1.734 -15.329,8.601 -12.638,15.325Z" style="fill:#2ac413;"/><path d="M1378.944,1734.517c2.691,6.724 12.724,10.775 22.39,9.041c9.666,-1.734 15.329,-8.601 12.638,-15.325c-2.691,-6.724 -12.724,-10.775 -22.39,-9.041c-9.666,1.734 -15.329,8.601 -12.638,15.325Z" style="fill:#2ac413;"/><path d="M1405.78,1743.622c2.691,6.724 12.724,10.775 22.39,9.041c9.666,-1.734 15.329,-8.601 12.638,-15.325c-2.691,-6.724 -12.724,-10.775 -22.39,-9.041c-9.666,1.734 -15.329,8.601 -12.638,15.325Z" style="fill:#2ac413;"/><path d="M1448.393,1714.521c2.691,6.724 12.724,10.775 22.39,9.041c9.666,-1.734 15.329,-8.601 12.638,-15.325c-2.691,-6.724 -12.724,-10.775 -22.39,-9.041c-9.666,1.734 -15.329,8.601 -12.638,15.325Z" style="fill:#2ac413;"/><path d="M1429.722,1702.841c-21.983,-2.365 -41.547,2.862 -43.661,11.667c-2.114,8.805 14.018,17.873 36.002,20.239c21.983,2.365 41.547,-2.862 43.661,-11.667c2.114,-8.805 -14.018,-17.873 -36.002,-20.239Z" style="fill:#2ac413;"/><path d="M996.557,1454.81c24.436,13.898 25.98,57.347 3.446,96.965c-22.534,39.619 -60.667,60.5 -85.102,46.602c-24.436,-13.898 -25.98,-57.347 -3.446,-96.965c22.534,-39.619 60.667,-60.5 85.102,-46.602Z" style="fill:#2ac413;"/><path d="M913.439,1516.42c26.927,-16.011 70.671,7.792 97.624,53.121c26.953,45.329 26.975,95.13 0.048,111.141c-26.927,16.011 -70.671,-7.792 -97.624,-53.121c-26.953,-45.329 -26.975,-95.13 -0.048,-111.141Z" style="fill:#2ac413;"/><path d="M1046.71,1659.16c0.943,8.834 -5.195,16.742 -13.696,17.649c-8.502,0.907 -16.17,-5.528 -17.112,-14.361c-0.943,-8.834 5.195,-16.742 13.696,-17.649c8.502,-0.907 16.17,5.528 17.112,14.361Z" style="fill:#2ac413;"/><path d="M986.632,1684.01c0.943,8.834 -5.195,16.742 -13.696,17.649c-8.502,0.907 -16.17,-5.528 -17.112,-14.361c-0.943,-8.834 5.195,-16.742 13.696,-17.649c8.502,-0.907 16.17,5.528 17.112,14.361Z" style="fill:#2ac413;"/><path d="M1031.211,1684.01c0.943,8.834 -5.195,16.742 -13.696,17.649c-8.502,0.907 -16.17,-5.528 -17.112,-14.361c-0.943,-8.834 5.195,-16.742 13.696,-17.649c8.502,-0.907 16.17,5.528 17.112,14.361Z" style="fill:#2ac413;"/><path d="M962.18,1667.921c0.943,8.834 -5.195,16.742 -13.696,17.649c-8.502,0.907 -16.17,-5.528 -17.112,-14.361c-0.943,-8.834 5.195,-16.742 13.696,-17.649c8.502,-0.907 16.17,5.528 17.112,14.361Z" style="fill:#2ac413;"/><path d="M1253.443,1454.81c-24.436,13.898 -25.98,57.347 -3.446,96.965c22.534,39.619 60.667,60.5 85.102,46.602c24.436,-13.898 25.98,-57.347 3.446,-96.965c-22.534,-39.619 -60.667,-60.5 -85.102,-46.602Z" style="fill:#2ac413;"/><path d="M1336.561,1516.42c-26.927,-16.011 -70.671,7.792 -97.624,53.121c-26.953,45.329 -26.975,95.13 -0.048,111.141c26.927,16.011 70.671,-7.792 97.624,-53.121c26.953,-45.329 26.975,-95.13 0.048,-111.141Z" style="fill:#2ac413;"/><path d="M1203.29,1659.16c-0.943,8.834 5.195,16.742 13.696,17.649c8.502,0.907 16.17,-5.528 17.112,-14.361c0.943,-8.834 -5.195,-16.742 -13.696,-17.649c-8.502,-0.907 -16.17,5.528 -17.112,14.361Z" style="fill:#2ac413;"/><path d="M1263.368,1684.01c-0.943,8.834 5.195,16.742 13.696,17.649c8.502,0.907 16.17,-5.528 17.112,-14.361c0.943,-8.834 -5.195,-16.742 -13.696,-17.649c-8.502,-0.907 -16.17,5.528 -17.112,14.361Z" style="fill:#2ac413;"/><path d="M1218.789,1684.01c-0.943,8.834 5.195,16.742 13.696,17.649c8.502,0.907 16.17,-5.528 17.112,-14.361c0.943,-8.834 -5.195,-16.742 -13.696,-17.649c-8.502,-0.907 -16.17,5.528 -17.112,14.361Z" style="fill:#2ac413;"/><path d="M1287.82,1667.921c-0.943,8.834 5.195,16.742 13.696,17.649c8.502,0.907 16.17,-5.528 17.112,-14.361c0.943,-8.834 -5.195,-16.742 -13.696,-17.649c-8.502,-0.907 -16.17,5.528 -17.112,14.361Z" style="fill:#2ac413;"/></g><g transform="matrix(1,0,0,0.921167,0,85.862526)"><g transform="matrix(135.697431,0,0,135.697431,1403.517652,979.211398)"></g><text x="845.687px" y="979.211px" style="font-family:'Arial-BoldMT', 'Arial', sans-serif;font-weight:700;font-size:135.697px;fill:#379cca;">SQUALL</text></g></g></svg>