<?xml version="1.0" encoding="UTF-8" standalone="no"?><!DOCTYPE svg PUBLIC "-//W3C//DTD SVG 1.1//EN" "http://www.w3.org/Graphics/SVG/1.1/DTD/svg11.dtd"><svg width="100%" height="100%" viewBox="0 0 2250 2813" version="1.1" xmlns="http://www.w3.org/2000/svg" xmlns:xlink="http://www.w3.org/1999/xlink" xml:space="preserve" xmlns:serif="http://www.serif.com/" style="fill-rule:evenodd;clip-rule:evenodd;stroke-linecap:round;stroke-linejoin:round;stroke-miterlimit:1.5;"><rect id="SUNNY" x="0" y="0" width="2250" height="2812.5" style="fill:none;"/><clipPath id="_clip1"><rect id="SUNNY1" serif:id="SUNNY" x="0" y="0" width="2250" height="2812.5"/></clipPath><g clip-path="url(#_clip1)"><g><path d="M791.797,2741.564l-645.669,0c-32.718,-56.75 -49.943,-121.124 -49.943,-186.654c0,-206.034 167.036,-373.307 372.777,-373.307c205.741,0 372.777,167.273 372.777,373.307c0,65.529 -17.225,129.904 -49.943,186.653Z" style="fill:#2ac413;"/><path d="M1327.116,2741.749l-970.754,0c-49.191,-84.361 -75.088,-180.056 -75.088,-277.467c0,-306.277 251.136,-554.934 560.465,-554.934c309.329,0 560.465,248.658 560.465,554.934c0,97.411 -25.897,193.106 -75.088,277.467Z" style="fill:#2ac413;"/><circle cx="546.758" cy="2112.147" r="224.923" style="fill:#2ac413;"/><ellipse cx="546.758" cy="2361.756" rx="114.782" ry="44.478" style="fill:#ecb1d5;"/><circle cx="1120.679" cy="2112.147" r="224.923" style="fill:#2ac413;"/><ellipse cx="1144.357" cy="2361.756" rx="114.782" ry="44.478" style="fill:#ecb1d5;"/><circle cx="546.758" cy="2112.147" r="173.302" style="fill:#ffc432;"/><circle cx="1120.679" cy="2112.147" r="173.302" style="fill:#ffc432;"/><path d="M1069.335,2741.001l-418.318,0c-21.197,-33.927 -32.357,-72.413 -32.357,-111.589c0,-123.175 108.22,-223.178 241.516,-223.178c133.296,0 241.516,100.003 241.516,223.178c0,39.176 -11.16,77.662 -32.357,111.589Z" style="fill:#ffc432;"/><path d="M131.561,2562.117c-40.808,28.464 -36.471,105.29 9.679,171.453c46.15,66.164 116.749,96.771 157.557,68.307c40.808,-28.464 36.471,-105.29 -9.679,-171.453c-46.15,-66.164 -116.749,-96.771 -157.557,-68.307Z" style="fill:#2ac413;"/><path d="M547.877,2562.117c-40.808,28.464 -36.471,105.29 9.679,171.453c46.15,66.164 116.749,96.771 157.557,68.307c40.808,-28.464 36.471,-105.29 -9.679,-171.453c-46.15,-66.164 -116.749,-96.771 -157.557,-68.307Z" style="fill:#2ac413;"/><path d="M1169.697,2562.117c-40.808,28.464 -36.471,105.29 9.679,171.453c46.15,66.164 116.749,96.771 157.557,68.307c40.808,-28.464 36.471,-105.29 -9.679,-171.453c-46.15,-66.164 -116.749,-96.771 -157.557,-68.307Z" style="fill:#2ac413;"/><path d="M756.867,2182.261c10.111,13.969 10.506,20.479 39.802,7.759c24.988,-10.85 23.706,-15.162 30.157,-23.652c20.144,35.033 64.181,34.381 68.928,8.163" style="fill:none;stroke:#000;stroke-width:6.25px;"/><circle cx="1120.679" cy="2112.147" r="143.607" style="fill:#292929;"/><circle cx="546.758" cy="2112.147" r="143.607" style="fill:#292929;"/><circle cx="581.486" cy="2146.875" r="34.728" style="fill:#fff;"/><circle cx="1156.528" cy="2146.875" r="34.728" style="fill:#fff;"/><g><g><path d="M537.7,2297.299c-69.76,1.827 -154.177,-52.587 -208.435,-141.039c-68.204,-111.187 -63.094,-234.322 11.404,-274.805c55.063,-29.921 132.72,-6.368 197.031,52.852c64.31,-59.22 141.968,-82.773 197.031,-52.852c74.499,40.482 79.609,163.618 11.404,274.805c-54.259,88.452 -138.675,142.866 -208.435,141.039Z" style="fill:#ffc432;"/><path d="M1144.142,2297.299c-69.76,1.827 -154.177,-52.587 -208.435,-141.039c-68.204,-111.187 -63.094,-234.322 11.404,-274.805c55.063,-29.921 132.72,-6.368 197.031,52.852c64.31,-59.22 141.968,-82.773 197.031,-52.852c74.499,40.482 79.609,163.618 11.404,274.805c-54.259,88.452 -138.675,142.866 -208.435,141.039Z" style="fill:#ffc432;"/><path d="M1147.827,2245.042c-52.756,1.382 -116.596,-39.769 -157.63,-106.661c-51.58,-84.085 -47.715,-177.207 8.625,-207.822c41.642,-22.628 100.37,-4.816 149.005,39.969c48.635,-44.785 107.363,-62.597 149.005,-39.969c56.34,30.615 60.204,123.737 8.625,207.822c-41.033,66.892 -104.873,108.043 -157.63,106.661Z"/><path d="M536.551,2245.042c-52.756,1.382 -116.596,-39.769 -157.63,-106.661c-51.58,-84.085 -47.715,-177.207 8.625,-207.822c41.642,-22.628 100.37,-4.816 149.005,39.969c48.635,-44.785 107.363,-62.597 149.005,-39.969c56.34,30.615 60.204,123.737 8.625,207.822c-41.033,66.892 -104.873,108.043 -157.63,106.661Z"/><path d="M752.565,2072.432c-4.99,-4.66 -7.763,-9.815 -7.763,-15.235c0,-20.82 40.906,-37.722 91.292,-37.722c50.385,0 91.292,16.903 91.292,37.722c0,5.42 -2.772,10.575 -7.763,15.235c-14.179,-10.298 -46.261,-17.49 -83.529,-17.49c-37.268,0 -69.35,7.193 -83.529,17.49Z" style="fill:#ffc432;"/></g><path d="M438.317,2103.243c20.247,37.913 31.452,71.489 25.006,74.931c-6.445,3.442 -28.116,-24.544 -48.363,-62.458c-20.247,-37.913 -31.452,-71.489 -25.006,-74.931c6.445,-3.442 28.116,24.544 48.363,62.458Z" style="fill:#fff;"/><path d="M418.619,1991.873c-10.448,10.448 -23.125,14.735 -28.291,9.568c-5.167,-5.167 -0.879,-17.844 9.568,-28.291c10.448,-10.448 23.125,-14.735 28.291,-9.568c5.167,5.167 0.879,17.844 -9.568,28.291Z" style="fill:#fff;"/><path d="M1023.249,1991.873c-10.448,10.448 -23.125,14.735 -28.291,9.568c-5.167,-5.167 -0.879,-17.844 9.568,-28.291c10.448,-10.448 23.125,-14.735 28.291,-9.568c5.167,5.167 0.879,17.844 -9.568,28.291Z" style="fill:#fff;"/><path d="M1050.207,2103.243c20.247,37.913 31.452,71.489 25.006,74.931c-6.445,3.442 -28.116,-24.544 -48.363,-62.458c-20.247,-37.913 -31.452,-71.489 -25.006,-74.931c6.445,-3.442 28.116,24.544 48.363,62.458Z" style="fill:#fff;"/></g><path d="M507.288,2349.43l-14.082,24.914" style="fill:none;stroke:#000;stroke-width:6.25px;"/><path d="M543.608,2353.839l-13.109,25.708" style="fill:none;stroke:#000;stroke-width:6.25px;"/><path d="M594.121,2356.628l-17.36,30.461" style="fill:none;stroke:#000;stroke-width:6.25px;"/><path d="M1101.219,2355.71l-10.106,21.105" style="fill:none;stroke:#000;stroke-width:6.25px;"/><path d="M1147.092,2353.549l-9.525,30.941" style="fill:none;stroke:#000;stroke-width:6.25px;"/><path d="M1191.084,2352.713l-7.014,23.039" style="fill:none;stroke:#000;stroke-width:6.25px;"/><circle cx="1348.12" cy="834.646" r="413.082" style="fill:#ffc432;"/><path d="M860.9,731.728l-306.576,-155.001l339.15,54.805c-14.233,31.779 -25.231,65.318 -32.574,100.197Zm158.82,-271.19l-108.165,-226.771l182.18,172.884c-26.338,15.699 -51.107,33.759 -74.015,53.888Zm275.714,-121.02l52.685,-339.517l52.685,339.517c-17.314,-1.824 -34.891,-2.76 -52.685,-2.76c-17.794,0 -35.371,0.935 -52.685,2.76Zm307.07,67.132l182.18,-172.884l-108.165,226.771c-22.908,-20.129 -47.678,-38.189 -74.015,-53.888Zm200.261,224.881l339.15,-54.805l-306.576,155.001c-7.343,-34.879 -18.341,-68.418 -32.574,-100.197Zm31.092,312.835l220.639,119.796l-248.931,-32.773c11.982,-27.794 21.504,-56.893 28.292,-87.023Zm-152.146,259.763l157,305.761l-242.207,-243.727c30.602,-17.665 59.153,-38.492 85.206,-62.033Zm-287.829,126.327l-45.763,246.919l-45.763,-246.919c15.071,1.376 30.336,2.079 45.763,2.079c15.427,0 30.692,-0.703 45.763,-2.079Zm-294.149,-64.294l-242.207,243.727l157,-305.761c26.053,23.541 54.605,44.368 85.206,62.033Zm-209.06,-234.773l-248.931,32.773l220.639,-119.796c6.787,30.13 16.309,59.229 28.292,87.023Z" style="fill:#ffc432;"/></g></g></svg>