<?xml version="1.0" encoding="UTF-8" standalone="no"?><!DOCTYPE svg PUBLIC "-//W3C//DTD SVG 1.1//EN" "http://www.w3.org/Graphics/SVG/1.1/DTD/svg11.dtd"><svg width="100%" height="100%" viewBox="0 0 2250 2813" version="1.1" xmlns="http://www.w3.org/2000/svg" xmlns:xlink="http://www.w3.org/1999/xlink" xml:space="preserve" xmlns:serif="http://www.serif.com/" style="fill-rule:evenodd;clip-rule:evenodd;stroke-linecap:round;stroke-linejoin:round;stroke-miterlimit:1.5;"><rect id="SUNNY" x="0" y="0" width="2250" height="2812.5" style="fill:none;"/><clipPath id="_clip1"><rect id="SUNNY1" serif:id="SUNNY" x="0" y="0" width="2250" height="2812.5"/></clipPath><g clip-path="url(#_clip1)"><g><path d="M812.35,2739.468l-664.747,0c-33.685,-58.427 -51.418,-124.703 -51.418,-192.169c0,-212.121 171.971,-384.337 383.792,-384.337c211.821,0 383.792,172.216 383.792,384.337c0,67.465 -17.734,133.742 -51.418,192.169Z" style="fill:#2ac413;"/><path d="M1363.487,2739.658l-999.437,0c-50.645,-86.853 -77.307,-185.376 -77.307,-285.665c0,-315.326 258.556,-571.331 577.025,-571.331c318.469,0 577.025,256.005 577.025,571.331c0,100.29 -26.662,198.812 -77.307,285.665Z" style="fill:#2ac413;"/><circle cx="560.071" cy="2091.454" r="231.569" style="fill:#2ac413;"/><ellipse cx="560.071" cy="2348.438" rx="118.174" ry="45.792" style="fill:#ecb1d5;"/><circle cx="1150.949" cy="2091.454" r="231.569" style="fill:#2ac413;"/><ellipse cx="1175.327" cy="2348.438" rx="118.174" ry="45.792" style="fill:#ecb1d5;"/><circle cx="560.071" cy="2091.454" r="178.422" style="fill:#ffc432;"/><circle cx="1150.949" cy="2091.454" r="178.422" style="fill:#ffc432;"/><path d="M1098.089,2738.888l-430.678,0c-21.824,-34.93 -33.313,-74.553 -33.313,-114.886c0,-126.815 111.417,-229.772 248.652,-229.772c137.235,0 248.652,102.957 248.652,229.772c0,40.333 -11.489,79.956 -33.313,114.886Z" style="fill:#ffc432;"/><path d="M132.606,2554.719c-42.014,29.305 -37.549,108.401 9.965,176.519c47.514,68.119 120.198,99.63 162.212,70.325c42.014,-29.305 37.549,-108.401 -9.965,-176.519c-47.514,-68.119 -120.198,-99.63 -162.212,-70.325Z" style="fill:#2ac413;"/><path d="M561.223,2554.719c-42.014,29.305 -37.549,108.401 9.965,176.519c47.514,68.119 120.198,99.63 162.212,70.325c42.014,-29.305 37.549,-108.401 -9.965,-176.519c-47.514,-68.119 -120.198,-99.63 -162.212,-70.325Z" style="fill:#2ac413;"/><path d="M1201.416,2554.719c-42.014,29.305 -37.549,108.401 9.965,176.519c47.514,68.119 120.198,99.63 162.212,70.325c42.014,-29.305 37.549,-108.401 -9.965,-176.519c-47.514,-68.119 -120.198,-99.63 -162.212,-70.325Z" style="fill:#2ac413;"/><path d="M776.389,2163.639c10.41,14.382 10.817,21.084 40.978,7.988c25.727,-11.17 24.406,-15.61 31.049,-24.35c20.739,36.068 66.077,35.397 70.965,8.404" style="fill:none;stroke:#000;stroke-width:6.25px;"/><circle cx="1150.949" cy="2091.454" r="147.851" style="fill:#292929;"/><circle cx="560.071" cy="2091.454" r="147.851" style="fill:#292929;"/><circle cx="595.825" cy="2127.208" r="35.754" style="fill:#fff;"/><circle cx="1187.858" cy="2127.208" r="35.754" style="fill:#fff;"/><g><g><path d="M550.745,2282.076c-71.821,1.881 -158.732,-54.141 -214.594,-145.206c-70.22,-114.472 -64.959,-241.246 11.741,-282.925c56.69,-30.805 136.642,-6.557 202.853,54.413c66.211,-60.97 146.162,-85.219 202.853,-54.413c76.7,41.679 81.961,168.453 11.741,282.925c-55.862,91.066 -142.772,147.088 -214.594,145.206Z" style="fill:#ffc432;"/><path d="M1175.106,2282.076c-71.821,1.881 -158.732,-54.141 -214.594,-145.206c-70.22,-114.472 -64.959,-241.246 11.741,-282.925c56.69,-30.805 136.642,-6.557 202.853,54.413c66.211,-60.97 146.162,-85.219 202.853,-54.413c76.7,41.679 81.961,168.453 11.741,282.925c-55.862,91.066 -142.772,147.088 -214.594,145.206Z" style="fill:#ffc432;"/><path d="M1178.9,2228.276c-54.315,1.423 -120.042,-40.944 -162.287,-109.813c-53.104,-86.57 -49.125,-182.443 8.879,-213.963c42.872,-23.297 103.336,-4.958 153.408,41.15c50.072,-46.109 110.536,-64.447 153.408,-41.15c58.005,31.52 61.983,127.393 8.879,213.963c-42.246,68.869 -107.972,111.235 -162.287,109.813Z"/><path d="M549.562,2228.276c-54.315,1.423 -120.042,-40.944 -162.287,-109.813c-53.104,-86.57 -49.125,-182.443 8.879,-213.963c42.872,-23.297 103.336,-4.958 153.408,41.15c50.072,-46.109 110.536,-64.447 153.408,-41.15c58.005,31.52 61.983,127.393 8.879,213.963c-42.246,68.869 -107.972,111.235 -162.287,109.813Z"/><path d="M771.959,2050.565c-5.138,-4.798 -7.992,-10.105 -7.992,-15.685c0,-21.435 42.115,-38.837 93.989,-38.837c51.874,0 93.989,17.402 93.989,38.837c0,5.58 -2.854,10.887 -7.992,15.685c-14.598,-10.602 -47.628,-18.007 -85.997,-18.007c-38.369,0 -71.399,7.405 -85.997,18.007Z" style="fill:#ffc432;"/></g><path d="M448.426,2082.286c20.845,39.034 32.381,73.601 25.745,77.145c-6.636,3.544 -28.947,-25.27 -49.792,-64.303c-20.845,-39.034 -32.381,-73.601 -25.745,-77.145c6.636,-3.544 28.947,25.27 49.792,64.303Z" style="fill:#fff;"/><path d="M428.147,1967.626c-10.756,10.756 -23.808,15.17 -29.127,9.851c-5.319,-5.319 -0.905,-18.371 9.851,-29.127c10.756,-10.756 23.808,-15.17 29.127,-9.851c5.319,5.319 0.905,18.371 -9.851,29.127Z" style="fill:#fff;"/><path d="M1050.641,1967.626c-10.756,10.756 -23.808,15.17 -29.127,9.851c-5.319,-5.319 -0.905,-18.371 9.851,-29.127c10.756,-10.756 23.808,-15.17 29.127,-9.851c5.319,5.319 0.905,18.371 -9.851,29.127Z" style="fill:#fff;"/><path d="M1078.396,2082.286c20.845,39.034 32.381,73.601 25.745,77.145c-6.636,3.544 -28.947,-25.27 -49.792,-64.303c-20.845,-39.034 -32.381,-73.601 -25.745,-77.145c6.636,-3.544 28.947,25.27 49.792,64.303Z" style="fill:#fff;"/></g><path d="M519.435,2335.748l-14.498,25.65" style="fill:none;stroke:#000;stroke-width:6.25px;"/><path d="M556.828,2340.287l-13.496,26.467" style="fill:none;stroke:#000;stroke-width:6.25px;"/><path d="M608.834,2343.159l-17.873,31.361" style="fill:none;stroke:#000;stroke-width:6.25px;"/><path d="M1130.915,2342.214l-10.405,21.728" style="fill:none;stroke:#000;stroke-width:6.25px;"/><path d="M1178.143,2339.988l-9.806,31.856" style="fill:none;stroke:#000;stroke-width:6.25px;"/><path d="M1223.436,2339.128l-7.221,23.72" style="fill:none;stroke:#000;stroke-width:6.25px;"/><circle cx="1385.111" cy="776.206" r="425.287" style="fill:#ffc432;"/><path d="M883.495,670.247c0,0 -138.057,-69.8 -231.561,-117.075c-6.433,-3.252 -9.535,-10.708 -7.307,-17.564c2.227,-6.855 9.12,-11.064 16.236,-9.914c103.438,16.715 256.169,41.395 256.169,41.395c-14.654,32.718 -25.977,67.248 -33.536,103.157Zm163.513,-279.203c0,0 -44.648,-93.606 -77.403,-162.277c-3.034,-6.36 -1.099,-13.979 4.602,-18.121c5.701,-4.142 13.545,-3.628 18.656,1.223c55.166,52.351 130.347,123.696 130.347,123.696c-27.116,16.162 -52.617,34.756 -76.202,55.48Zm283.861,-124.596c0,0 23.727,-152.904 39.796,-256.455c1.105,-7.123 7.238,-12.377 14.446,-12.377c7.208,0 13.341,5.254 14.446,12.377c16.069,103.551 39.796,256.455 39.796,256.455c-17.826,-1.878 -35.922,-2.841 -54.242,-2.841c-18.32,0 -36.417,0.963 -54.242,2.841Zm316.143,69.116c0,0 75.181,-71.345 130.347,-123.696c5.111,-4.85 12.955,-5.365 18.656,-1.223c5.701,4.142 7.636,11.761 4.602,18.121c-32.755,68.671 -77.403,162.277 -77.403,162.277c-23.585,-20.724 -49.086,-39.317 -76.202,-55.48Zm206.178,231.526c0,0 152.731,-24.68 256.169,-41.395c7.116,-1.15 14.008,3.059 16.236,9.914c2.227,6.855 -0.875,14.311 -7.307,17.564c-93.504,47.274 -231.561,117.075 -231.561,117.075c-7.559,-35.909 -18.882,-70.439 -33.536,-103.157Zm32.011,322.078c0,0 91.029,49.424 157.839,85.699c6.192,3.362 9.105,10.663 6.928,17.365c-2.177,6.702 -8.826,10.896 -15.812,9.976c-75.377,-9.924 -178.082,-23.446 -178.082,-23.446c12.336,-28.615 22.14,-58.574 29.128,-89.595Zm-156.641,267.438c0,0 70.723,137.734 118.607,230.989c3.293,6.412 1.42,14.268 -4.412,18.505c-5.832,4.237 -13.881,3.591 -18.962,-1.522c-73.872,-74.335 -182.957,-184.106 -182.957,-184.106c31.506,-18.187 60.901,-39.63 87.724,-63.866Zm-296.334,130.06c0,0 -18.884,101.889 -32.741,176.657c-1.284,6.928 -7.328,11.955 -14.374,11.955c-7.046,0 -13.09,-5.027 -14.374,-11.955c-13.857,-74.769 -32.741,-176.657 -32.741,-176.657c15.516,1.417 31.232,2.141 47.115,2.141c15.883,0 31.599,-0.724 47.115,-2.141Zm-302.84,-66.194c0,0 -109.085,109.77 -182.957,184.106c-5.081,5.113 -13.131,5.759 -18.962,1.522c-5.832,-4.237 -7.705,-12.092 -4.412,-18.505c47.884,-93.256 118.607,-230.989 118.607,-230.989c26.823,24.236 56.218,45.679 87.724,63.866Zm-215.238,-241.709c0,0 -102.706,13.522 -178.082,23.446c-6.986,0.92 -13.634,-3.275 -15.812,-9.976c-2.177,-6.702 0.735,-14.003 6.928,-17.365c66.809,-36.274 157.839,-85.699 157.839,-85.699c6.988,31.02 16.791,60.979 29.128,89.595Z" style="fill:#ffc432;"/></g></g></svg>