<?xml version="1.0" encoding="UTF-8" standalone="no"?><!DOCTYPE svg PUBLIC "-//W3C//DTD SVG 1.1//EN" "http://www.w3.org/Graphics/SVG/1.1/DTD/svg11.dtd"><svg width="100%" height="100%" viewBox="0 0 2250 2813" version="1.1" xmlns="http://www.w3.org/2000/svg" xmlns:xlink="http://www.w3.org/1999/xlink" xml:space="preserve" xmlns:serif="http://www.serif.com/" style="fill-rule:evenodd;clip-rule:evenodd;stroke-linecap:round;stroke-linejoin:round;stroke-miterlimit:1.5;"><rect id="THUNDERSTORM" x="0" y="0" width="2250" height="2812.5" style="fill:none;"/><g><rect x="1377.809" y="2360.922" width="483.867" height="109.978" style="fill:#787171;"/><g><path d="M1427.523,2172.872l-293.845,-342.192l133.009,25.687l-296.654,-488.239l464.718,552.139l-127.236,-6.42l120.009,259.025Z" style="fill:#ffc432;"/><path d="M1334.05,1876.476l-194.075,-261.368c16.085,20.944 197.222,256.795 200.924,261.908c0.892,1.233 0.47,2.504 0.018,3.111c-1.476,1.983 -2.153,1.105 -102.094,13.061c14.211,21.404 40.721,60.83 86.565,134.331c3.337,5.35 -30.383,-42.339 -32.999,-46.039c-18.3,-25.881 -47.427,-68.217 -61.339,-89.03c-1.025,-1.533 -0.431,-3.631 1.182,-4.42c0.908,-0.444 0.982,-0.293 101.818,-11.554Z" style="fill:#f9f07b;"/></g><g><g><path d="M1401.94,1504.935l-202.525,-362.585l145.565,89.116l-138.537,-398.444l228.307,509.693l-79.693,-19.204l46.883,181.424Z" style="fill:#ffc432;"/></g><path d="M1289.638,1249.289c6.097,13.8 16.748,38.035 32.627,78.258c0.035,0.088 0.118,0.172 0.104,0.265c-0.036,0.229 -0.211,0.42 -0.247,0.649c-0.15,-0.269 -0.628,-0.231 -0.778,-0.501c-2.616,-4.685 -28.02,-56.379 -39.978,-83.374c-0.992,-2.24 1.124,-4.562 3.396,-3.879c0.942,0.283 0.933,0.362 90.446,44.611l-61.588,-168.502c-0.122,-0.333 -0.292,-0.652 -0.364,-0.999c-0.054,-0.259 0.214,-0.36 0.344,-0.13c0.093,0.164 67.361,172.844 67.503,173.531c0.313,1.517 -1.13,2.864 -2.639,2.448c-1.282,-0.353 -1.274,-0.478 -88.825,-42.377Z" style="fill:#f9f07b;"/></g><g><path d="M1434.75,1737.334l162.603,374.596l-61.602,-19.816l82.006,160.923l16.484,-90.454l23.632,3.603l-223.123,-428.853Z" style="fill:#ffc432;"/><path d="M1595.117,2143.881c1.439,6.704 3.918,18.736 6.299,37.628c0.024,0.188 -0.322,0.982 -0.613,0.272c-0.304,-0.74 -4.219,-12.362 -6.627,-20.516c-2.966,-10.04 -5.262,-19.384 -5.389,-19.984c-0.376,-1.769 0.814,-3.102 2.106,-3.397c0.961,-0.219 1.018,-0.058 35.033,4.336l-65.15,-133.434c5.753,10.855 71.402,134.73 71.749,135.779c0.394,1.195 -0.228,2.548 -1.399,3.034c-1.21,0.502 -1.32,0.188 -36.008,-3.716Z" style="fill:#f9f07b;"/></g><g><path d="M1634.514,1810.348l-53.028,-341.34l76.31,114.8l-50.566,-545.709l118.779,672.967l-78.068,-72.838l-13.427,172.119Z" style="fill:#ffc432;"/><path d="M1625.409,1592.214c0.512,9.777 1.31,27.364 1.211,53.869c-0,0.062 0.031,0.133 -0.002,0.186c-0.101,0.164 -0.634,0.959 -0.803,0.052c-0.143,-0.763 -2.356,-18.123 -3.596,-30.217c-1.561,-15.218 -2.529,-28.818 -2.585,-29.847c-0.112,-2.075 1.936,-3.417 3.71,-2.724c0.841,0.329 0.797,0.472 52.572,44.908c-20.721,-219.481 -20.745,-219.483 -20.719,-219.751c0.035,-0.372 0.414,-0.411 0.524,-0.054c0.058,0.188 25.436,224.672 25.387,225.545c-0.069,1.22 -1.133,2.205 -2.357,2.187c-1.779,-0.026 -1.657,-0.659 -53.343,-44.152Z" style="fill:#f9f07b;"/></g><g><path d="M1840.503,1443.952l-0.425,-177.676l45.534,48.636l54.984,-243.024l-31.573,362.916l-33.284,-74.285l-35.236,83.433Z" style="fill:#ffc432;"/><path d="M1870.221,1328.081c-2.723,7.848 -3.096,9.218 -7.199,19.171c-0.431,1.046 -4.841,11.744 -5.589,12.994c0.129,-0.567 3.354,-17.245 9.304,-36.84c0.043,-0.14 0.341,-2.042 1.93,-2.496c1.021,-0.291 1.803,0.192 1.937,0.274c0.852,0.526 0.785,0.681 19.802,24.204c3.475,-16.568 15.022,-71.616 15.042,-71.652c0.029,-0.052 0.464,-0.425 0.391,0.073c-0.314,2.14 -10.073,62.594 -12.428,76.543c-0.231,1.368 -1.755,2.032 -2.912,1.392c-0.738,-0.409 -0.683,-0.54 -20.278,-23.663Z" style="fill:#f9f07b;"/></g><g><path d="M1748.788,2264.441l89.657,-68.106l-7.188,41.603l143.865,-65.065l-195.528,122.712l24.835,-45.211l-55.641,14.068Z" style="fill:#ffc432;"/><path d="M1818.72,2235.189c-5.008,1.622 -5.843,1.957 -12.442,3.686c-0.694,0.182 -7.787,2.04 -8.704,2.14c0.336,-0.151 9.999,-4.894 22.179,-9.373c0.087,-0.032 1.163,-0.608 1.999,0.022c0.537,0.405 0.592,0.985 0.601,1.084c0.06,0.632 -0.044,0.657 -4.669,19.259c9.704,-4.574 41.944,-19.771 41.969,-19.775c0.037,-0.005 0.392,0.072 0.113,0.226c-1.202,0.659 -35.492,18.825 -43.443,22.965c-0.78,0.406 -1.698,-0.111 -1.817,-0.94c-0.076,-0.529 0.012,-0.552 4.214,-19.293Z" style="fill:#f9f07b;"/></g><g><path d="M1428.726,2283.25l-89.657,-68.106l7.188,41.603l-143.865,-65.065l195.528,122.712l-24.835,-45.211l55.641,14.068Z" style="fill:#ffc432;"/><path d="M1358.794,2253.998c5.008,1.622 5.843,1.957 12.442,3.686c0.694,0.182 7.787,2.04 8.704,2.14c-0.336,-0.151 -9.999,-4.894 -22.179,-9.373c-0.087,-0.032 -1.163,-0.608 -1.999,0.022c-0.537,0.405 -0.592,0.985 -0.601,1.084c-0.06,0.632 0.044,0.657 4.669,19.259c-9.704,-4.574 -41.944,-19.771 -41.969,-19.775c-0.037,-0.005 -0.392,0.072 -0.113,0.226c1.202,0.659 35.492,18.825 43.443,22.965c0.78,0.406 1.698,-0.111 1.817,-0.94c0.076,-0.529 -0.012,-0.552 -4.214,-19.293Z" style="fill:#f9f07b;"/></g><g><path d="M1726.008,2125.465l27.462,-273.07l58.359,54.761l55.131,-320.55l46.613,82.572l141.091,-411.258l-123.374,584.9l-46.973,-93.884l-73.143,301.96l-29.177,-95.756l-55.99,170.325Z" style="fill:#ffc432;"/><path d="M1773.149,1918.814c-0.682,2.622 -1.359,5.246 -2.079,7.858c-5.956,21.595 -6.129,21.538 -12.479,43.024c-0.125,0.423 -0.293,0.275 -0.619,0.581c0.046,-0.279 -0.336,-0.519 -0.289,-0.798c0.987,-5.941 8.264,-44.922 11.343,-58.259c0.541,-2.345 3.419,-3.083 5.043,-1.437c0.424,0.43 0.394,0.481 40.501,57.255l30.407,-150.881c2.221,-10.932 27.571,-135.708 27.925,-136.613c0.403,-1.029 1.521,-1.685 2.624,-1.51c2.218,0.351 1.774,1.279 41.687,63.429l42.475,-128.626c-3.215,10.698 -39.847,132.602 -40.375,133.672c-0.451,0.914 -1.333,0.976 -1.475,0.986c-2.209,0.154 -1.83,-1.056 -41.425,-60.802c-14.039,71.225 -31.774,161.817 -57.295,288.426c-0.39,1.934 -2.553,2.983 -4.304,2.122c-1.486,-0.73 -1.265,-1.108 -41.665,-58.427Z" style="fill:#f9f07b;"/></g><g><g><path d="M931.972,1754.614l-134.35,-116.272l66.579,-2.444l-147.3,-200.964l253.132,261.972l-77.896,-23.631l39.835,81.338Z" style="fill:#ffc432;"/></g><g><path d="M864.038,1656.154c4.135,7.204 4.924,8.385 9.742,18.012c0.506,1.012 5.685,11.36 6.137,12.744c-0.343,-0.47 -10.812,-13.847 -21.693,-31.195c-0.078,-0.124 -1.317,-1.598 -0.617,-3.094c0.45,-0.961 1.328,-1.235 1.478,-1.282c0.956,-0.298 1.028,-0.145 31.258,0.941c-10.222,-13.494 -44.183,-58.33 -44.197,-58.369c-0.02,-0.056 -0.016,-0.629 0.312,-0.248c1.409,1.641 40.622,48.675 49.603,59.606c0.88,1.072 0.381,2.658 -0.861,3.111c-0.793,0.289 -0.856,0.161 -31.162,-0.226Z" style="fill:#f9f07b;"/></g></g><g><g><path d="M1056.46,942.844l-66.37,-164.815l-23.922,62.181l-142.274,-204.553l165.629,324.457l2.932,-81.348l64.005,64.078Z" style="fill:#ffc432;"/></g><g><path d="M985.38,846.631c5.472,6.25 6.332,7.379 13.875,15.061c0.793,0.807 8.9,9.064 10.062,9.941c-0.333,-0.477 -9.588,-14.721 -22.466,-30.644c-0.092,-0.114 -1.083,-1.765 -2.726,-1.588c-1.055,0.113 -1.599,0.855 -1.692,0.982c-0.592,0.808 -0.471,0.926 -9.256,29.871c-9.446,-14.048 -40.832,-60.723 -40.863,-60.749c-0.046,-0.037 -0.59,-0.219 -0.336,0.214c1.095,1.865 32.855,54.222 40.279,66.264c0.728,1.181 2.39,1.223 3.222,0.196c0.531,-0.656 0.43,-0.757 9.9,-29.548Z" style="fill:#f9f07b;"/></g></g><path d="M1482.848,996.245c-36.491,17.414 -77.649,27.214 -121.186,27.214c-149.932,0 -271.657,-116.227 -271.657,-259.386c0,-143.159 121.725,-259.386 271.657,-259.386c0.676,-0 1.352,0.002 2.026,0.007c49.399,-96.955 167.823,-165.31 305.913,-165.31c168.891,0 308.364,102.249 328.118,234.015c12.083,-2.143 24.539,-3.263 37.268,-3.263c112.101,0 203.112,86.9 203.112,193.937c0,107.037 -91.012,193.937 -203.112,193.937c-53.671,0 -102.507,-19.92 -138.836,-52.432c-17.358,102.296 -112.247,180.602 -226.55,180.602c-76.969,0 -145.135,-35.507 -186.753,-89.936Z" style="fill:#919191;"/><path d="M354.755,1391.06c-32.953,15.726 -70.121,24.576 -109.437,24.576c-135.395,0 -245.319,-104.958 -245.319,-234.237c0,-129.279 109.924,-234.237 245.319,-234.237c0.611,-0 1.22,0.002 1.83,0.006c44.61,-87.555 151.552,-149.283 276.253,-149.283c152.516,0 278.467,92.335 296.306,211.326c10.911,-1.935 22.16,-2.947 33.655,-2.947c101.232,0 183.42,78.475 183.42,175.134c0,96.659 -82.188,175.134 -183.42,175.134c-48.467,0 -92.569,-17.988 -125.375,-47.348c-15.675,92.378 -101.364,163.092 -204.585,163.092c-69.507,0 -131.064,-32.064 -168.647,-81.216Z" style="fill:#919191;"/><path d="M601.348,501.668c-27.869,13.3 -59.304,20.785 -92.554,20.785c-114.508,0 -207.475,-88.767 -207.475,-198.102c0,-109.336 92.966,-198.102 207.475,-198.102c0.516,-0 1.032,0.002 1.548,0.005c37.728,-74.048 128.173,-126.254 233.637,-126.254c128.988,0 235.509,78.091 250.596,178.726c9.228,-1.637 18.742,-2.492 28.463,-2.492c85.615,0 155.124,66.369 155.124,148.117c0,81.748 -69.509,148.117 -155.124,148.117c-40.99,0 -78.289,-15.213 -106.034,-40.044c-13.257,78.127 -85.727,137.932 -173.025,137.932c-58.784,0 -110.845,-27.118 -142.63,-68.687Z" style="fill:#919191;"/><path d="M575.422,2642.712l-498.405,0c-25.256,-43.806 -38.552,-93.498 -38.552,-144.081c0,-159.041 128.938,-288.163 287.754,-288.163c158.816,0 287.754,129.121 287.754,288.163c0,50.583 -13.296,100.275 -38.552,144.081Z" style="fill:#2ac413;"/><path d="M988.646,2642.855l-749.344,0c-37.972,-65.12 -57.962,-138.989 -57.962,-214.182c0,-236.421 193.857,-428.364 432.634,-428.364c238.777,0 432.634,191.944 432.634,428.364c0,75.194 -19.99,149.063 -57.962,214.182Z" style="fill:#2ac413;"/><circle cx="386.272" cy="2156.853" r="173.623" style="fill:#2ac413;"/><ellipse cx="386.272" cy="2349.531" rx="88.603" ry="34.333" style="fill:#ecb1d5;"/><circle cx="829.292" cy="2156.853" r="173.623" style="fill:#2ac413;"/><ellipse cx="847.57" cy="2349.531" rx="88.603" ry="34.333" style="fill:#ecb1d5;"/><circle cx="386.272" cy="2156.853" r="133.775" style="fill:#ffc432;"/><circle cx="829.292" cy="2156.853" r="133.775" style="fill:#ffc432;"/><path d="M789.659,2642.277l-322.908,0c-16.363,-26.189 -24.977,-55.897 -24.977,-86.138c0,-95.081 83.537,-172.275 186.431,-172.275c102.894,0 186.431,77.194 186.431,172.275c0,30.241 -8.614,59.948 -24.977,86.138Z" style="fill:#ffc432;"/><path d="M65.773,2504.193c-31.5,21.972 -28.153,81.275 7.471,132.348c35.624,51.073 90.121,74.699 121.621,52.727c31.5,-21.972 28.153,-81.275 -7.471,-132.348c-35.624,-51.073 -90.121,-74.699 -121.621,-52.727Z" style="fill:#2ac413;"/><path d="M895.129,2504.193c-31.5,21.972 -28.153,81.275 7.471,132.348c35.624,51.073 90.121,74.699 121.621,52.727c31.5,-21.972 28.153,-81.275 -7.471,-132.348c-35.624,-51.073 -90.121,-74.699 -121.621,-52.727Z" style="fill:#2ac413;"/><path d="M548.459,2210.975c7.805,10.783 8.11,15.808 30.724,5.989c19.289,-8.375 18.299,-11.704 23.279,-18.257c15.55,27.042 49.542,26.539 53.207,6.301" style="fill:none;stroke:#000;stroke-width:6.25px;"/><circle cx="829.292" cy="2156.853" r="93.776" style="fill:#292929;"/><circle cx="386.272" cy="2156.853" r="93.776" style="fill:#292929;"/><circle cx="430.157" cy="2177.968" r="26.807" style="fill:#fff;"/><circle cx="874.043" cy="2177.968" r="26.807" style="fill:#fff;"/><circle cx="793.946" cy="2124.353" r="15.422" style="fill:#fff;"/><circle cx="352.376" cy="2124.353" r="15.422" style="fill:#fff;"/><g><path d="M359.651,2340.016l-10.87,19.232" style="fill:none;stroke:#000;stroke-width:6.25px;"/><path d="M387.687,2343.419l-10.119,19.844" style="fill:none;stroke:#000;stroke-width:6.25px;"/><path d="M426.679,2345.573l-13.401,23.513" style="fill:none;stroke:#000;stroke-width:6.25px;"/><path d="M818.118,2344.864l-7.801,16.291" style="fill:none;stroke:#000;stroke-width:6.25px;"/><path d="M853.528,2343.195l-7.353,23.884" style="fill:none;stroke:#000;stroke-width:6.25px;"/><path d="M887.486,2342.551l-5.414,17.784" style="fill:none;stroke:#000;stroke-width:6.25px;"/></g><g><path d="M1486.152,2361.56l267.18,-0c13.539,8.532 20.666,18.21 20.666,28.061c0,30.975 -69.12,56.122 -154.256,56.122c-85.136,0 -154.256,-25.148 -154.256,-56.122c0,-9.852 7.128,-19.53 20.666,-28.061Z" style="fill:#247aa1;"/><ellipse cx="1619.742" cy="2360.922" rx="214.218" ry="68.877" style="fill:#379cca;"/><ellipse cx="1619.742" cy="2360.922" rx="170.879" ry="49.745" style="fill:#247aa1;"/><ellipse cx="1619.742" cy="2366.679" rx="154.256" ry="36.973" style="fill:#379cca;"/></g><g><path d="M1518.358,2322.313c-14.452,-1.619 -25.43,-9.475 -25.43,-18.91c0,-6.949 5.955,-13.042 14.868,-16.417c2.983,-5.613 7.819,-9.265 13.273,-9.265c4.808,0 9.135,2.837 12.136,7.354c4.157,0.815 7.936,2.16 11.13,3.908c17.525,-5.649 44.718,-9.279 75.226,-9.279c52.806,0 95.678,10.876 95.678,24.271c0,6.746 -10.873,12.853 -28.413,17.254c19.803,12.276 31.116,25.422 27.867,34.715c-2.234,6.387 -10.982,9.911 -23.746,10.601c2.852,2.849 6.271,6.325 11.093,11.402c1.124,1.184 1.679,2.797 1.521,4.421l-0.402,4.123l1.446,0.511c2.929,1.034 4.467,4.252 3.433,7.181c-1.034,2.929 -4.252,4.467 -7.181,3.433l-5.6,-1.978c-2.44,-0.862 -3.978,-3.277 -3.727,-5.852l0.577,-5.947c-8.711,-9.114 -12.543,-12.67 -17.578,-17.759c-14.197,-1.367 -30.957,-5.105 -48.36,-11.19c-8.378,-2.93 -16.301,-6.192 -23.599,-9.656c1.43,8.228 2.241,13.013 2.792,15.834c0.074,0.377 0.154,0.75 0.229,1.087c3.559,1.712 5.828,3.359 7.373,5.043c2.09,2.278 3.117,4.709 3.647,7.793c0.503,2.93 0.423,6.735 1.328,12.314c0.498,3.066 -1.588,5.96 -4.654,6.457c-3.066,0.498 -5.96,-1.588 -6.457,-4.654c-0.673,-4.147 -0.829,-7.351 -1.05,-9.955c-0.143,-1.693 -0.103,-2.99 -0.885,-4.073c-0.927,-1.284 -2.688,-2.163 -5.626,-3.441l-1.633,-0.969l-1.262,-1.328l-0.767,-1.335c-0.19,-0.42 -0.395,-0.967 -0.601,-1.708c-0.697,-2.507 -1.736,-9.088 -4.996,-27.567c-8.129,-4.593 -15.112,-9.376 -20.614,-14.091c-2.045,-0.32 -4.039,-0.66 -5.978,-1.017c-0.388,0.438 -0.851,0.822 -1.384,1.132c-9.144,5.317 -8.956,6.591 -31.51,12.939l-2.601,7.738c-0.725,2.156 -2.675,3.664 -4.944,3.822l-8.691,0.605c-3.099,0.216 -5.79,-2.125 -6.005,-5.224c-0.216,-3.099 2.125,-5.79 5.224,-6.005l4.944,-0.344l2.354,-7.003c0.595,-1.771 2.031,-3.132 3.832,-3.631c13.609,-3.771 19.157,-5.698 23.123,-7.645c-1.667,-0.48 -3.26,-0.977 -4.776,-1.489c-5.262,2.566 -11.895,4.098 -19.1,4.098c-0.634,0 -1.264,-0.012 -1.888,-0.035c-0.306,0.023 -0.615,0.035 -0.926,0.035c-0.923,0 -1.829,-0.105 -2.711,-0.306Z" style="fill:#fff;stroke:#fff;stroke-width:18.75px;"/><path d="M1553.338,2307.842c-0.989,1.559 -2.447,3.009 -4.303,4.298c-5.233,3.634 -13.671,6.021 -23.19,6.021c-9.519,0 -17.957,-2.386 -23.19,-6.021c-3.68,-2.556 -5.795,-5.746 -5.795,-9.155c0,-3.409 2.115,-6.599 5.795,-9.155c1.744,-1.211 3.844,-2.284 6.222,-3.176c0.977,-5.746 6.064,-10.137 12.192,-10.137c5.227,0 9.697,3.195 11.504,7.7c6.708,0.828 12.502,2.863 16.461,5.613c1.55,1.077 2.823,2.266 3.777,3.537c1.177,-0.696 2.547,-1.371 4.097,-2.019c1.032,-0.431 2.146,-0.852 3.337,-1.262c1.589,-0.546 3.316,-1.072 5.17,-1.574c14.512,-3.934 36.816,-6.467 61.812,-6.467c30.584,0 57.138,3.791 70.319,9.302c3.517,1.471 6.105,3.079 7.622,4.753c1.132,1.25 1.697,2.554 1.697,3.875c0,1.321 -0.565,2.625 -1.697,3.875c-1.517,1.674 -4.105,3.283 -7.622,4.753c-8.117,3.394 -21.306,6.135 -37.383,7.741c18.095,8.231 32.403,16.653 40.13,23.526c2.992,2.661 5.014,5.114 5.947,7.235c0.701,1.594 0.811,3.032 0.353,4.278c-0.457,1.245 -1.472,2.271 -3.038,3.032c-2.084,1.013 -5.212,1.574 -9.216,1.667c-4.068,0.094 -9.068,-0.289 -14.802,-1.119c6.202,8.248 12.718,15.627 19.035,22.278c0.169,0.178 0.252,0.42 0.228,0.663l-0.765,7.851l4.977,1.758c0.439,0.155 0.67,0.638 0.515,1.077c-0.155,0.439 -0.638,0.67 -1.077,0.515l-5.6,-1.978c-0.366,-0.129 -0.597,-0.492 -0.559,-0.878l0.793,-8.123c-6.626,-6.992 -13.461,-14.781 -19.922,-23.525c-15.18,-2.435 -34.993,-7.775 -56.107,-15.528c-9.051,-3.324 -17.633,-6.831 -25.52,-10.382c1.4,14.424 3.191,23.576 4.639,28.616c0.529,1.841 1.005,3.116 1.4,3.88c0.124,0.24 0.298,0.482 0.346,0.548c4.409,1.924 6.823,3.62 8.221,5.557c1.427,1.977 1.825,4.225 2.086,7.315c0.21,2.475 0.349,5.522 0.989,9.464c0.075,0.46 -0.238,0.894 -0.698,0.969c-0.46,0.075 -0.894,-0.238 -0.969,-0.698c-0.649,-3.996 -0.792,-7.083 -1.005,-9.592c-0.231,-2.725 -0.514,-4.726 -1.773,-6.469c-1.281,-1.774 -3.539,-3.263 -7.597,-5.028l-0.315,-0.196c-0.101,-0.083 -0.212,-0.197 -0.327,-0.347c-0.299,-0.389 -0.679,-1.112 -1.096,-2.216c-1.581,-4.186 -3.946,-14.32 -5.673,-32.606c-11.353,-5.189 -21.192,-10.447 -28.817,-15.338c-9.321,5.71 -21.945,12.67 -38.152,17.222l-3.408,10.14c-0.109,0.323 -0.401,0.55 -0.742,0.573l-8.691,0.605c-0.465,0.032 -0.868,-0.319 -0.901,-0.784c-0.032,-0.465 0.319,-0.868 0.784,-0.901l8.129,-0.566l3.371,-10.03c0.089,-0.266 0.305,-0.47 0.575,-0.545c15.824,-4.385 28.226,-11.106 37.473,-16.733c-0.623,-0.412 -1.229,-0.821 -1.819,-1.227c-1.833,-1.262 -3.503,-2.494 -4.997,-3.687c-0.854,-0.682 -1.651,-1.352 -2.388,-2.007l-0.844,-0.769Zm-44.629,-15.317c-1.923,0.776 -3.636,1.682 -5.09,2.692c-3.15,2.188 -5.07,4.85 -5.07,7.768c0,2.919 1.919,5.58 5.07,7.768c5.012,3.482 13.108,5.719 22.227,5.719c9.119,0 17.214,-2.237 22.227,-5.719c1.777,-1.234 3.162,-2.619 4.032,-4.115c0.315,-0.541 0.562,-1.097 0.736,-1.666c0.198,-0.647 0.301,-1.31 0.301,-1.987c0,-1.139 -0.292,-2.238 -0.836,-3.286c-0.251,-0.485 -0.557,-0.958 -0.912,-1.419c-0.844,-1.097 -1.97,-2.124 -3.323,-3.063c-3.627,-2.519 -8.868,-4.387 -14.942,-5.227c0.198,0.862 0.302,1.759 0.302,2.679c0,6.702 -5.535,12.152 -12.362,12.152c-6.827,0 -12.362,-5.449 -12.362,-12.152c0,-0.048 0,-0.096 0.001,-0.144Zm21.921,-4.512c-1.749,-3.443 -5.377,-5.808 -9.56,-5.808c-4.95,0 -9.123,3.313 -10.325,7.803c-0.162,0.606 -0.27,1.233 -0.319,1.876c-0.02,0.259 -0.03,0.52 -0.03,0.783c0,5.779 4.787,10.463 10.673,10.463c5.886,0 10.673,-4.684 10.673,-10.463c0,-1.004 -0.145,-1.976 -0.414,-2.895c-0.179,-0.611 -0.414,-1.2 -0.699,-1.76Zm34.953,6.197c-3.047,0.838 -5.738,1.74 -8.023,2.695c-1.451,0.607 -2.735,1.233 -3.836,1.879c0.723,1.339 1.106,2.75 1.106,4.2c0,1.131 -0.233,2.237 -0.678,3.304c0.365,0.349 0.75,0.702 1.152,1.06c1.934,1.721 4.285,3.538 7.008,5.425c1.187,0.378 2.443,0.746 3.763,1.102c0.73,0.197 1.479,0.389 2.247,0.579c6.792,1.672 15.078,3.05 24.403,4.04c0.566,0.059 1.133,0.117 1.702,0.175c9.982,0.995 21.093,1.549 32.799,1.549c9.221,0 18.072,-0.344 26.293,-0.976c-6.515,-2.817 -13.449,-5.591 -20.684,-8.248c-26.876,-9.87 -51.619,-15.827 -67.255,-16.784Zm91.472,24.739c17.198,-1.53 31.333,-4.345 39.842,-7.903c2.709,-1.133 4.834,-2.334 6.277,-3.601c1.276,-1.121 2.004,-2.264 2.004,-3.47c0,-1.206 -0.728,-2.349 -2.004,-3.47c-1.443,-1.267 -3.568,-2.468 -6.277,-3.601c-13.058,-5.46 -39.37,-9.172 -69.668,-9.172c-22.248,0 -42.347,2.002 -56.627,5.227c15.782,1.758 38.433,7.494 62.818,16.449c7.41,2.721 14.506,5.566 21.164,8.456c0.729,0.318 1.456,0.636 2.179,0.955c0.097,0.043 0.195,0.086 0.292,0.129Zm21.063,38.102c6.318,0.984 11.797,1.445 16.184,1.344c3.697,-0.085 6.592,-0.562 8.516,-1.497c1.106,-0.538 1.868,-1.216 2.191,-2.096c0.323,-0.88 0.181,-1.89 -0.314,-3.016c-0.861,-1.959 -2.76,-4.196 -5.523,-6.653c-7.902,-7.029 -22.756,-15.675 -41.507,-24.068c5.58,13.567 12.737,25.469 20.452,35.986Zm-82.763,-26.29c8.089,3.666 16.935,7.293 26.284,10.727c20.24,7.433 39.27,12.647 54.112,15.177c-7.585,-10.525 -14.586,-22.408 -20.035,-35.911c-8.841,0.744 -18.447,1.152 -28.487,1.152c-11.654,0 -22.723,-0.55 -32.689,-1.537c0.247,3.719 0.522,7.179 0.816,10.391Zm-28.369,-14.908c7.19,4.52 16.243,9.334 26.603,14.102c-0.271,-3.036 -0.524,-6.286 -0.753,-9.759c-9.953,-1.048 -18.748,-2.535 -25.849,-4.343Z" style="stroke:#000;stroke-width:6.25px;stroke-linecap:butt;stroke-miterlimit:2;"/></g><rect x="1377.809" y="2470.9" width="483.867" height="39.848"/><path d="M1639.094,2502.609l-107.63,206.048c-3.392,6.493 -11.417,9.011 -17.91,5.619l-23.529,-12.29c-6.493,-3.392 -9.011,-11.417 -5.619,-17.91l107.63,-206.048c3.392,-6.493 11.417,-9.011 17.91,-5.619l23.529,12.29c6.493,3.392 9.011,11.417 5.619,17.91Z"/><path d="M1638.576,2477.537l116.233,201.321c3.663,6.344 1.486,14.468 -4.858,18.131l-22.989,13.273c-6.344,3.663 -14.468,1.486 -18.131,-4.858l-116.233,-201.321c-3.663,-6.344 -1.486,-14.468 4.858,-18.131l22.989,-13.273c6.344,-3.663 14.468,-1.486 18.131,4.858Z"/><g><path d="M623.569,2404.776l-29.308,57.539l-15.179,-8.403l28.765,-56.474l65.953,-130.801c0,0 17.383,67.02 -25.022,128.164c0,0 -13.847,-3.505 -25.21,9.973Z"/><path d="M674.022,2272.79l-0.824,2.935c0,0 5.653,53.73 -26.752,109.166c0,0 -1.546,3.924 0.503,4.282c0,0 1.929,1.555 4.302,-3.177c0,0 32.966,-49.599 22.771,-113.207Z" style="fill:#fff;"/></g><path d="M408.352,2566.682c18.249,33.794 77.549,37.207 132.34,7.619c54.791,-29.589 84.458,-81.047 66.208,-114.84c-18.249,-33.794 -77.549,-37.207 -132.34,-7.619c-54.791,29.589 -84.458,81.047 -66.208,114.84Z" style="fill:#2ac413;"/></g></svg>