<?xml version="1.0" encoding="UTF-8" standalone="no"?><!DOCTYPE svg PUBLIC "-//W3C//DTD SVG 1.1//EN" "http://www.w3.org/Graphics/SVG/1.1/DTD/svg11.dtd"><svg width="100%" height="100%" viewBox="0 0 2250 2813" version="1.1" xmlns="http://www.w3.org/2000/svg" xmlns:xlink="http://www.w3.org/1999/xlink" xml:space="preserve" xmlns:serif="http://www.serif.com/" style="fill-rule:evenodd;clip-rule:evenodd;stroke-linecap:round;stroke-linejoin:round;stroke-miterlimit:1.5;"><rect id="TORNADO" x="0" y="0" width="2250" height="2812.5" style="fill:none;"/><clipPath id="_clip1"><rect x="0" y="0" width="2250" height="2812.5"/></clipPath><g clip-path="url(#_clip1)"><g><ellipse cx="1118.963" cy="328.51" rx="1118.963" ry="68.019" style="fill:none;stroke:#d0d0d0;stroke-width:18.75px;"/><ellipse cx="1003.042" cy="592.102" rx="996.602" ry="93.007" style="fill:none;stroke:#d0d0d0;stroke-width:18.75px;"/><ellipse cx="930.591" cy="1670.965" rx="550.627" ry="130.81" style="fill:none;stroke:#d0d0d0;stroke-width:18.75px;"/><ellipse cx="1056.173" cy="1952.423" rx="425.045" ry="97" style="fill:none;stroke:#d0d0d0;stroke-width:18.75px;"/><ellipse cx="1246.155" cy="2162.498" rx="301.074" ry="56.749" style="fill:none;stroke:#d0d0d0;stroke-width:18.75px;"/><ellipse cx="1138.284" cy="2319.334" rx="230.233" ry="43.396" style="fill:none;stroke:#d0d0d0;stroke-width:18.75px;"/><path d="M1481.217,1395.676c6.924,-4.108 30.542,-17.904 50.994,-34.768c38.835,-32.019 58.597,-67.225 30.878,-105.861c-33.129,-46.179 -118.105,-77.974 -160.17,-91.93c-127.908,-42.435 -272.937,-57.447 -319.337,-61.978c33.57,2.058 221.399,12.609 364.835,65.041c81.127,29.655 127.378,65.534 140.106,102.39c13.195,38.21 -7.357,74.173 -52.81,101.941c-23.319,14.246 -47.858,22.813 -54.497,25.164Z" style="fill:#d0d0d0;"/><ellipse cx="969.232" cy="2490.903" rx="169.052" ry="61.107" style="fill:none;stroke:#d0d0d0;stroke-width:18.75px;"/><g><path d="M1208.179,1623.043l-525.319,204.868c-44.626,-35.791 -79.066,-82.701 -99.858,-136.015c-65.373,-167.63 17.453,-356.724 184.845,-422.004c167.392,-65.281 356.368,17.814 421.742,185.443c20.792,53.315 27.204,111.155 18.591,167.709Z" style="fill:#2ac413;"/><path d="M1643.776,1453.339l-789.809,308.016c-66.789,-53.028 -118.223,-122.669 -149.131,-201.923c-97.18,-249.188 28.247,-531.181 279.918,-629.329c251.671,-98.149 534.894,24.476 632.074,273.664c30.908,79.254 40.202,165.329 26.947,249.573Z" style="fill:#2ac413;"/><path d="M737.736,1005.699c101,-39.389 214.977,10.632 254.366,111.631c39.389,101 -10.632,214.977 -111.631,254.366c-101,39.389 -214.977,-10.632 -254.366,-111.631c-39.389,-101 10.632,-214.977 111.631,-254.366Z" style="fill:#2ac413;"/><path d="M874.191,1355.593c51.542,-20.101 99.711,-20.205 107.5,-0.233c7.789,19.972 -27.733,52.506 -79.275,72.607c-51.542,20.101 -99.711,20.205 -107.5,0.233c-7.789,-19.972 27.733,-52.506 79.275,-72.607Z" style="fill:#ecb1d5;"/><path d="M1360.399,1165.978c51.542,-20.101 99.711,-20.205 107.5,-0.233c7.789,19.972 -27.733,52.506 -79.275,72.607c-51.542,20.101 -99.711,20.205 -107.5,0.233c-7.789,-19.972 27.733,-52.506 79.275,-72.607Z" style="fill:#ecb1d5;"/><path d="M754.116,1047.699c77.819,-30.349 165.638,8.192 195.987,86.011c30.349,77.819 -8.192,165.638 -86.011,195.987c-77.819,30.349 -165.638,-8.192 -195.987,-86.011c-30.349,-77.819 8.192,-165.638 86.011,-195.987Z" style="fill:#ffc432;"/><path d="M1433.806,1534.524l-340.345,132.73c-28.011,-20.878 -49.302,-48.649 -61.732,-80.522c-39.083,-100.216 17.235,-215.916 125.685,-258.21c108.45,-42.294 228.229,4.731 267.312,104.946c12.43,31.874 15.562,66.727 9.081,101.056Z" style="fill:#ffc432;"/><path d="M766.404,1638.576c-40.495,-15.748 -94.102,24.771 -119.636,90.427c-25.534,65.657 -13.387,131.747 27.109,147.496c40.495,15.748 94.102,-24.771 119.636,-90.427c25.534,-65.657 13.387,-131.747 -27.109,-147.496Z" style="fill:#2ac413;"/><path d="M952.787,1554.439c-24.17,36.107 3.735,97.236 62.276,136.424c58.541,39.188 125.692,41.689 149.862,5.583c24.17,-36.107 -3.735,-97.236 -62.276,-136.424c-58.541,-39.188 -125.692,-41.689 -149.862,-5.583Z" style="fill:#2ac413;"/><path d="M1572.322,1296.638c32.159,29.217 96.728,10.606 144.1,-41.535c47.371,-52.141 59.722,-118.194 27.563,-147.412c-32.159,-29.217 -96.728,-10.606 -144.1,41.535c-47.371,52.141 -59.722,118.194 -27.563,147.412Z" style="fill:#2ac413;"/><path d="M1002.296,1179.076c12.659,8.157 15.046,13.328 34.845,-6.316c16.888,-16.756 14.477,-19.857 17.032,-28.812c27.505,22.111 63.127,7.608 58.67,-15.229" style="fill:none;stroke:#000;stroke-width:6.25px;"/><path d="M770.557,1089.858c54.551,-21.274 116.112,5.742 137.386,60.293c21.274,54.551 -5.742,116.112 -60.293,137.386c-54.551,21.274 -116.112,-5.742 -137.386,-60.293c-21.274,-54.551 5.742,-116.112 60.293,-137.386Z" style="fill:#292929;"/><path d="M837.358,1177.678c15.594,-6.082 33.192,1.642 39.274,17.236c6.082,15.594 -1.642,33.192 -17.236,39.274c-15.594,6.082 -33.192,-1.642 -39.274,-17.236c-6.082,-15.594 1.642,-33.192 17.236,-39.274Z" style="fill:#fff;"/><path d="M753.679,1152.121c8.971,-3.499 19.095,0.944 22.594,9.916c3.499,8.971 -0.944,19.095 -9.916,22.594c-8.971,3.499 -19.095,-0.944 -22.594,-9.916c-3.499,-8.971 0.944,-19.095 9.916,-22.594Z" style="fill:#fff;"/><g><path d="M856.334,1392.694l-3.552,24.738" style="fill:none;stroke:#000;stroke-width:6.25px;"/><path d="M887.283,1384.757l-2.509,25.075" style="fill:none;stroke:#000;stroke-width:6.25px;"/><path d="M929.265,1370.999l-4.459,30.291" style="fill:none;stroke:#000;stroke-width:6.25px;"/><path d="M1341.551,1209.352l-1.526,20.378" style="fill:none;stroke:#000;stroke-width:6.25px;"/><path d="M1378.187,1193.038l2.068,28.196" style="fill:none;stroke:#000;stroke-width:6.25px;"/><path d="M1413.715,1178.4l1.603,20.97" style="fill:none;stroke:#000;stroke-width:6.25px;"/></g><g><path d="M1204.681,823.597c101,-39.389 214.977,10.632 254.366,111.631c39.389,101 -10.632,214.977 -111.631,254.366c-101,39.389 -214.977,-10.632 -254.366,-111.631c-39.389,-101 10.632,-214.977 111.631,-254.366Z" style="fill:#2ac413;"/><path d="M1221.06,865.596c77.819,-30.349 165.638,8.192 195.987,86.011c30.349,77.819 -8.192,165.638 -86.011,195.987c-77.819,30.349 -165.638,-8.192 -195.987,-86.011c-30.349,-77.819 8.192,-165.638 86.011,-195.987Z" style="fill:#ffc432;"/><path d="M1237.501,907.755c54.551,-21.274 116.112,5.742 137.386,60.293c21.274,54.551 -5.742,116.112 -60.293,137.386c-54.551,21.274 -116.112,-5.742 -137.386,-60.293c-21.274,-54.551 5.742,-116.112 60.293,-137.386Z" style="fill:#292929;"/><path d="M1305.215,995.22c15.594,-6.082 33.192,1.642 39.274,17.236c6.082,15.594 -1.642,33.192 -17.236,39.274c-15.594,6.082 -33.192,-1.642 -39.274,-17.236c-6.082,-15.594 1.642,-33.192 17.236,-39.274Z" style="fill:#fff;"/><path d="M1219.095,970.614c8.971,-3.499 19.095,0.944 22.594,9.916c3.499,8.971 -0.944,19.095 -9.916,22.594c-8.971,3.499 -19.095,-0.944 -22.594,-9.916c-3.499,-8.971 0.944,-19.095 9.916,-22.594Z" style="fill:#fff;"/></g></g><path d="M1800.002,896.533c-0.977,-5.874 -3.887,-22.342 -51.353,-37.819c-1.673,-0.546 -14.458,-5.243 -45.471,-12.594c-10.09,-2.392 -39.442,-8.657 -61.138,-12.545c-55.381,-9.925 -190.315,-39.038 -463.415,-57.24c-18.659,-1.244 -116.485,-7.764 -233.531,-10.304c-18.224,-0.396 -127.85,0.952 -138.967,1.089c-0.488,0.006 -0.177,-0.457 -0.021,-0.479c1.336,-0.188 125.307,-7.317 138.963,-7.668c52.463,-1.349 174.9,-2.994 299.329,1.853c161.556,6.293 261.854,19.058 321.863,28.381c49.499,7.69 78.264,15.452 84.96,17.258c19.355,5.222 39.28,10.848 67.655,22.035c1.485,0.586 22.64,9.243 37.43,17.779c42.261,24.393 44.626,41.574 43.695,50.252Zm-1510.133,-86.066c-38.049,11.27 -63.705,19.267 -94.877,30.657c-10.143,3.706 -32.346,12.261 -48.667,20.365c-0.851,0.422 -18.147,8.909 -29.088,17.567c-17.142,13.564 -11.893,20.259 -11.033,21.725c11.135,18.982 70.147,46.545 201.671,71.259c14.753,2.772 235.975,47.73 631.684,55.966c67.649,1.408 116.712,1.15 116.754,1.19c0.053,0.05 0.596,0.416 0.01,0.479c-2.811,0.304 -44.326,1.602 -48.181,1.722c-439.826,13.75 -827.264,-26.994 -912.208,-97.839c-0.054,-0.045 -28.019,-20.586 -18.398,-48.319c13.473,-38.837 89.039,-55.977 126.536,-63.452c16.813,-3.352 44.69,-6.947 48.59,-7.45c13.733,-1.771 18.016,-2.198 37.207,-3.872Z" style="fill:#d0d0d0;"/><path d="M905.612,1488.14c0.364,-0.005 0.695,-0.011 0.987,-0.016c-0.471,0.145 -0.897,0.245 -0.987,0.016Zm0,0c-5.397,0.079 -17.985,0.149 -19.35,0.157c-332.3,1.856 -607.539,-67.478 -655.147,-166.023c-24.405,-50.515 6.052,-117.654 174.546,-168.584c43.236,-13.069 87.975,-21.698 95.711,-23.191c63.838,-12.314 116.384,-17.46 129.756,-18.834c-39.571,6.435 -225.667,36.325 -329.822,101.328c-65.058,40.603 -62.601,74.501 -60.671,86.442c11.295,69.883 168.197,136.044 397.241,168.372c126.586,17.866 237.433,19.712 267.719,20.227c-0,0.041 0.006,0.076 0.018,0.106Zm0.987,-0.016c0.679,-0.209 1.452,-0.51 1.451,-0.05c-0,0.017 -0.54,0.034 -1.451,0.05Z" style="fill:#d0d0d0;"/></g></g></svg>