<?xml version="1.0" encoding="UTF-8" standalone="no"?><!DOCTYPE svg PUBLIC "-//W3C//DTD SVG 1.1//EN" "http://www.w3.org/Graphics/SVG/1.1/DTD/svg11.dtd"><svg width="100%" height="100%" viewBox="0 0 2250 2813" version="1.1" xmlns="http://www.w3.org/2000/svg" xmlns:xlink="http://www.w3.org/1999/xlink" xml:space="preserve" xmlns:serif="http://www.serif.com/" style="fill-rule:evenodd;clip-rule:evenodd;stroke-linecap:round;stroke-linejoin:round;stroke-miterlimit:1.5;"><rect id="TORNADO" x="0" y="0" width="2250" height="2812.5" style="fill:none;"/><clipPath id="_clip1"><rect x="0" y="0" width="2250" height="2812.5"/></clipPath><g clip-path="url(#_clip1)"><g><path d="M2205.327,328.055c-7.479,-2.084 -17.724,-4.5 -31.744,-7.156c-25.174,-4.768 -63.161,-11.068 -148.062,-20.461c-7.349,-0.813 -30.268,-3.349 -91.953,-9.35c-49.836,-4.848 -96.092,-8.707 -126.754,-11.161c-74.121,-5.932 -74.102,-6.054 -135.648,-10.578c103.647,-0.356 148.929,0.643 178.281,1.231c49.892,0.999 86.899,2.21 109.353,3.029c23.078,0.841 58.25,2.828 63.313,3.114c0.202,0.011 61.576,3.111 120.237,9.84c87.297,10.014 100.659,21.742 106.167,28.193c7.487,8.767 9.189,24.487 -9.257,35.096c-10.996,6.324 -30.996,12.455 -71.438,19.25c-50.829,8.54 -120.621,14.034 -131.147,14.862c-12.58,0.99 -71.637,5.952 -195.074,10.778c-15.889,0.621 -103.283,3.535 -189.086,4.785c-82.819,1.206 -211.104,2.481 -418.229,-0.463c-28.716,-0.408 -115.257,-2.162 -115.323,-2.227c-0.079,-0.078 -0.738,-0.534 0,-0.613c2.473,-0.263 175.575,-3.34 384.383,-12.279c7.08,-0.303 87.79,-3.463 206.683,-9.897c72.736,-3.936 170.679,-10.148 240.51,-15.744c59.359,-4.757 135.496,-11.599 189,-18.75c33.201,-4.438 53.377,-8.369 65.788,-11.498Zm19.004,8.292c-0.435,0.581 -0.484,0.7 0,0Zm-2188.321,-7.749c25.661,6.487 73.874,14.628 154.842,23.03c0.661,0.069 46.449,5.357 152.074,14.175c32.07,2.677 110.7,8.743 143.885,11.145c11.485,0.831 39.483,2.857 143.611,9.667c35.599,2.328 35.595,2.282 86.466,5.386c-86.709,1.021 -131.776,1.251 -213.461,0.464c-78.133,-0.752 -115.324,-1.775 -161.868,-3.357c-0.575,-0.02 -49.27,-1.427 -117.051,-5.559c-0.111,-0.007 -44.86,-2.454 -98.101,-7.904c-112.355,-11.501 -132.701,-23.93 -139.968,-35.966c-5.534,-9.167 -5.329,-24.076 12.92,-33.732c17.548,-9.285 56.957,-18.485 148.187,-27.417c25.253,-2.472 97.785,-8.418 184.69,-12.314c112.845,-5.059 217.391,-7.127 316.643,-8.199c25.004,-0.27 174.565,-1.532 344.152,0.887c45.199,0.645 80.944,1.335 80.945,1.337c0.075,0.074 0.743,0.536 0.001,0.613c-0.671,0.069 -33.639,0.624 -142.683,3.88c-29.458,0.88 -189.688,5.665 -368.08,15.006c-140.823,7.374 -226.532,14.033 -246.209,15.562c-0.846,0.066 -118.002,8.407 -205.369,20.132c-42.619,5.72 -62.055,10.035 -67.391,11.219c-0.747,0.166 -4.026,0.884 -8.237,1.947Z" style="fill:#d0d0d0;"/><path d="M502.377,511.682c159.243,-13.509 279.402,-19.324 374.287,-23.055c3.462,-0.136 80.558,-2.233 134.853,-2.896c44.745,-0.546 103.552,-0.909 116.796,-0.706c10.815,0.166 75.797,1.162 135.17,3.162c10.706,0.361 57.796,2.896 62.821,3.167c62.918,3.388 340.043,18.628 529.834,52.284c0.844,0.15 0.048,0.753 -0.113,0.751c-2.837,-0.035 -76.705,-11.617 -245.497,-19.757c-172.93,-8.339 -328.184,-7.871 -354.417,-8.342c-28.532,-0.512 -86.493,-1.328 -128.145,-1.672c-11.844,-0.098 -46.446,-1.275 -158.957,-2.754l-141.28,-1.461c-170.532,-1.809 -265.822,-0.039 -325.352,1.278Zm760.903,170.219c-150.471,8.701 -254.891,12.023 -349.79,14.003c-2.629,0.055 -74.478,0.754 -133.991,0.306c-50.079,-0.378 -87.507,-1.056 -98.167,-1.244c-2.444,-0.043 -51.09,-1.873 -72.541,-2.887c-5.03,-0.238 -50.738,-2.398 -62.856,-3.267c-306.384,-21.976 -493.74,-54.403 -532.125,-84.414c-1.39,-1.087 -7.691,-5.959 -7.751,-11.869c-0.002,-0.224 -0.096,-0.807 0.38,-0.807c0.424,-0 0.374,0.356 0.387,0.576c1.839,29.95 160.032,52.863 403.551,63.707c90.651,4.037 118.236,3.983 150.631,5.26c24.446,0.964 76.622,2.804 113.914,3.88c18.137,0.523 43.697,2.095 120.554,4.702c10.343,0.351 50.206,1.902 110.181,3.492c10.557,0.28 95.794,3.518 180.873,5.572c71.685,1.731 111.822,2.405 176.749,2.99Z" style="fill:#d0d0d0;"/><path d="M930.318,1801.775c0.602,-0.602 0.725,-0.303 1.57,-0.356c58.149,-3.649 111.992,-8.532 174.41,-16.659c13.087,-1.704 52.235,-7.053 87.739,-13.243c48.832,-8.514 72.101,-13.834 85.94,-16.866c12.668,-2.776 43.83,-9.991 64.377,-15.554c1.397,-0.378 11.045,-2.811 29.854,-8.489c56.02,-16.911 76.32,-33.714 76.42,-33.788c20.438,-15.216 25.818,-29.653 9.003,-49.253c-4.314,-5.029 -20.771,-23.891 -78.975,-48.403c-21.759,-9.164 -41.212,-15.53 -41.249,-15.593c-0.062,-0.105 -0.332,-0.392 0.097,-0.368c0.006,0 6.576,1.218 14.433,2.861c30.963,6.474 68.046,16.292 97.129,32.479c11.571,6.441 48.404,27.865 40.822,63.367c-6.029,28.231 -37.331,48.766 -62.784,62.014c-6.423,3.343 -29.03,14.081 -56.243,22.972c-45.967,15.017 -87.492,22.332 -132.005,28.063c-9.498,1.223 -37.55,5.034 -91.701,8.328c-3.998,0.243 -41.399,2.176 -73.895,2.467c-74.121,0.665 -128.814,-2.704 -144.667,-3.705c-0.129,-0.008 -0.366,-0.181 -0.275,-0.273Zm0.545,-261.62c-0.543,0.543 -0.648,0.302 -1.417,0.356c-62.788,4.451 -107.388,9.28 -151.753,14.837c-2.726,0.341 -46.887,5.919 -85.644,12.292c-40.688,6.691 -40.665,6.775 -62.457,10.891c-24.851,4.694 -24.859,4.63 -38.922,7.425c-21.094,4.193 -55.3,10.849 -80.85,17.32c-19.618,4.969 -41.779,11.009 -63.895,19.633c-43.503,16.964 -52.888,32.988 -54.115,34.814c-6.183,9.2 -10.888,24.551 12.185,47.028c13.444,13.097 32.675,23.756 32.961,23.985c0.207,0.165 0.085,0.398 -0.165,0.343c-0.932,-0.205 -7.916,-3.181 -8.599,-3.472c-23.564,-10.043 -56.235,-28.359 -55.133,-58.317c0.244,-6.641 2.096,-26.061 32.99,-49.489c19.703,-14.941 46.179,-26.55 50.419,-28.41c20.972,-9.196 38.077,-14.802 41.452,-15.908c37.962,-12.442 63.766,-17.604 78.768,-20.672c2.915,-0.596 20.336,-3.674 22.701,-4.037c8.309,-1.273 29.049,-4.72 72.97,-8.652c4.577,-0.41 39.606,-3.36 81.439,-4.398c17.646,-0.438 62.182,-1.626 136.107,1.708c11.262,0.508 40.629,2.394 40.686,2.45c0.091,0.091 0.364,0.182 0.273,0.273Z" style="fill:#d0d0d0;"/><path d="M1089.908,2049.127c13.063,-0.822 142.96,-7.772 255.079,-35.928c55.297,-13.887 94.045,-29.728 114.265,-46.259c8.574,-7.009 9.858,-11.296 10.394,-12.741c1.447,-3.907 1.582,-10.32 -8.123,-22.109c-0.365,-0.444 -3.148,-4.328 -14.96,-14.463c-2.607,-2.237 -4.923,-4.049 -4.931,-4.068c-0.318,-0.801 -0.508,-1.65 -0.826,-2.451c0.833,-0.23 1.624,-0.596 2.456,-0.825c0.138,-0.038 8.38,2.299 10.889,3.211c6.105,2.22 16.828,7.161 22.905,12.161c5.117,4.21 17.706,15.34 14.899,34.354c-0.732,4.955 -4.115,14.891 -13.392,24.263c-8.962,9.054 -39.77,36.92 -163.233,54.13c-105.606,14.721 -220.772,10.829 -225.421,10.727Zm-33.698,-193.711c-14.837,0.584 -159.967,4.886 -285.628,35.234c-93.759,22.644 -128.076,48.578 -126.491,63.464c0.143,1.341 -0.186,10.323 24.216,27.763c0.114,0.082 9.833,6.902 18.85,12.287c1.208,0.722 2.705,1.615 15.278,8.724c3.495,1.976 6.227,3.437 6.236,3.453c0.44,0.742 0.732,1.565 1.171,2.307c-0.92,0.265 -1.722,0.865 -2.642,1.13c-0.334,0.096 -9.463,-1.403 -10.284,-1.537c-0.985,-0.162 -19.024,-3.432 -32.866,-8.677c-4.296,-1.628 -17.202,-6.409 -28.755,-15.728c-5.71,-4.606 -14.58,-14.155 -16.602,-26.121c-2.544,-15.049 4.128,-32.496 29.481,-48.328c9.435,-5.892 46.227,-28.364 150.199,-43.088c118.99,-16.851 244.711,-11.327 257.835,-10.883Z" style="fill:#d0d0d0;"/><path d="M1376.871,2213.626c1.047,-0.157 112.465,-15.502 151.869,-39.884c1.885,-1.166 11.627,-7.401 10.463,-11.941c-1.012,-3.948 -9.447,-11.932 -36.776,-21.536c-4.607,-1.619 -23.979,-8.427 -58.763,-16.53c-9.183,-2.139 -28.44,-6.293 -44.499,-9.33c-2.011,-0.38 -2.02,-0.349 -2.078,-0.392c-0.232,-0.174 -0.312,-0.504 -0.544,-0.677c0.286,-0.048 0.394,-0.495 0.68,-0.544c0.656,-0.111 15.304,0.628 16.634,0.695c40.438,2.039 66.766,7.17 68.62,7.504c18.764,3.387 31.495,7.644 34.167,8.537c28.904,9.664 40.325,22.421 38.281,35.776c-2.472,16.15 -25.458,25.034 -38.44,29.383c-19.037,6.378 -45.163,10.435 -49.145,11.054c-39.494,6.133 -80.28,7.509 -90.47,7.885Zm-215.914,-105.569c-1.191,0.126 -111.212,10.544 -173.878,33.042c-24.437,8.773 -35.26,17.626 -33.851,22.372c1.916,6.451 19.383,18.515 71.197,31.759c0.078,0.02 28.31,7.625 73.602,15.471c4.678,0.81 8.847,1.494 8.852,1.497c0.239,0.164 0.312,0.507 0.551,0.672c-0.286,0.046 -0.388,0.505 -0.674,0.551c-0.722,0.117 -16.371,-0.67 -17.793,-0.741c-57.719,-2.9 -89.426,-10.905 -92.482,-11.626c-15.015,-3.541 -62.758,-15.241 -59.228,-41.155c3.328,-24.43 52.562,-36.62 97.461,-43.35c31.08,-4.658 67.022,-6.582 72.869,-6.895c26.326,-1.409 44.621,-1.512 53.374,-1.595Z" style="fill:#d0d0d0;"/><path d="M1078.369,2277.474c0.188,-0.031 -0.759,0.011 -0.571,-0.02c4.331,-0.718 20.268,-2.557 22.033,-2.761c35.339,-4.077 78.561,-6.863 115.557,-5.764c20.468,0.608 57.666,1.672 105.719,16.435c2.452,0.753 16.597,5.332 26.589,10.308c4.733,2.357 28.238,13.737 22.332,27.272c-2.689,6.161 -11.101,9.702 -13.036,10.582l-0.519,-0.919c6.981,-5.116 15.196,-12.636 4.541,-19.967c-0.049,-0.034 -7,-6.01 -33.619,-11.189c-26.614,-5.178 -47.358,-6.083 -102.88,-12.457c-8.225,-0.944 -60.024,-6.552 -97.896,-9.03c-25.873,-1.693 -44.388,-2.352 -48.251,-2.489Zm139.922,82.561c-16.764,2.551 -40.073,6.027 -80.008,8.989c-10.26,0.761 -35.681,2.037 -55.178,1.853c-28.784,-0.27 -60.127,-1.207 -108.954,-13.624c-0.246,-0.063 -15.135,-3.972 -26.563,-8.192c-8.158,-3.012 -41.094,-15.27 -40.09,-29.429c0.007,-0.098 -0.029,-0.211 0.025,-0.293c0.139,-0.208 0.389,-0.326 0.528,-0.534c0.144,0.202 0.384,0.323 0.528,0.525c0.32,0.449 -1.099,8.215 22.256,15.2c25.378,7.59 68.494,10.57 98.781,12.836c29.488,2.207 59.306,5.49 96.895,8.239c26.398,1.931 54.955,3.826 91.78,4.428Z" style="fill:#d0d0d0;"/><path d="M1481.217,1395.676c6.924,-4.108 30.542,-17.904 50.994,-34.768c38.835,-32.019 58.597,-67.225 30.878,-105.861c-33.129,-46.179 -118.105,-77.974 -160.17,-91.93c-127.908,-42.435 -272.937,-57.447 -319.337,-61.978c33.57,2.058 221.399,12.609 364.835,65.041c81.127,29.655 127.378,65.534 140.106,102.39c13.195,38.21 -7.357,74.173 -52.81,101.941c-23.319,14.246 -47.858,22.813 -54.497,25.164Z" style="fill:#d0d0d0;"/><path d="M1403.434,2452.749c-9.031,-6.272 -32.731,-13.446 -48.733,-19.197c-7.808,-2.806 -12.357,-4.176 -14.55,-4.976c-5.797,-2.115 -8.901,-3.155 -8.92,-3.175c-0.334,-0.363 -0.591,-0.793 -0.925,-1.156c0.469,-0.156 0.69,-0.768 1.159,-0.924c0.116,-0.039 9.405,-0.985 10.442,-1.054c3.398,-0.227 16.139,-0.603 18.44,-0.562c10.005,0.178 31.543,1.522 47.165,8.748c23.128,10.697 19.229,25.701 14.55,31.965c-19.624,26.27 -121.589,21.502 -133.722,21.007c2.684,-0.393 73.92,-10.069 107.235,-26.009c0.645,-0.309 5.138,-2.458 7.859,-4.666Zm-314.302,-0.331c6.305,5.227 24.413,12.75 26.954,13.919c6.875,3.163 12.773,5.4 14.624,6.216c4.969,2.191 8.151,3.473 8.168,3.494c0.315,0.38 0.556,0.817 0.872,1.197c-0.468,0.157 -0.731,0.714 -1.199,0.871c-0.011,0.004 -8.163,0.651 -10.684,0.671c-12.791,0.1 -17.644,-0.413 -19.169,-0.575c-8.865,-0.938 -36.09,-4.172 -41.558,-21.076c-1.687,-5.217 -2.825,-19.681 22.783,-28.265c39.36,-13.195 108.404,-9.029 122.118,-8.246c-1.047,0.149 -65.42,8.589 -105.224,23.161c-8.517,3.118 -14.693,6.344 -17.685,8.634Z" style="fill:#d0d0d0;"/><g><path d="M1036.634,1664.969l-416.595,149.463c-34.247,-29.042 -60.262,-66.59 -75.431,-108.87c-47.694,-132.936 21.359,-279.529 154.106,-327.156c132.747,-47.626 279.243,21.634 326.936,154.57c15.169,42.28 18.957,87.803 10.984,131.992Z" style="fill:#2ac413;"/><path d="M1382.072,1541.17l-626.344,224.716c-51.267,-43.044 -90.128,-98.793 -112.678,-161.644c-70.899,-197.614 33.577,-416.186 233.16,-487.791c199.583,-71.605 419.181,30.698 490.079,228.312c22.549,62.851 27.992,130.59 15.782,196.407Z" style="fill:#2ac413;"/><path d="M680.764,1170.46c80.096,-28.736 168.454,12.961 197.19,93.057c28.736,80.096 -12.961,168.454 -93.057,197.19c-80.096,28.736 -168.454,-12.961 -197.19,-93.057c-28.736,-80.096 12.961,-168.454 93.057,-197.19Z" style="fill:#2ac413;"/><path d="M780.315,1447.938c40.874,-14.665 78.673,-13.712 84.355,2.127c5.682,15.839 -22.889,40.603 -63.763,55.268c-40.874,14.665 -78.673,13.712 -84.355,-2.127c-5.682,-15.839 22.889,-40.603 63.763,-55.268Z" style="fill:#ecb1d5;"/><path d="M1165.895,1309.602c40.874,-14.665 78.673,-13.712 84.355,2.127c5.682,15.839 -22.889,40.603 -63.763,55.268c-40.874,14.665 -78.673,13.712 -84.355,-2.127c-5.682,-15.839 22.889,-40.603 63.763,-55.268Z" style="fill:#ecb1d5;"/><path d="M692.714,1203.767c61.713,-22.141 129.792,9.986 151.934,71.7c22.141,61.713 -9.986,129.792 -71.7,151.934c-61.713,22.141 -129.792,-9.986 -151.934,-71.7c-22.141,-61.713 9.986,-129.792 71.7,-151.934Z" style="fill:#ffc432;"/><path d="M1215.575,1600.36l-269.905,96.835c-21.531,-16.983 -37.64,-39.232 -46.708,-64.509c-28.513,-79.474 18.162,-169.049 104.167,-199.905c86.005,-30.856 178.979,8.616 207.492,88.09c9.069,25.277 10.777,52.692 4.954,79.489Z" style="fill:#ffc432;"/><path d="M689.66,1667.665c-31.436,-13.227 -74.37,17.414 -95.816,68.383c-21.446,50.969 -13.335,103.088 18.102,116.315c31.436,13.227 74.37,-17.414 95.816,-68.383c21.446,-50.969 13.335,-103.088 -18.102,-116.315Z" style="fill:#2ac413;"/><path d="M837.714,1605.652c-19.741,27.812 0.841,76.377 45.934,108.384c45.093,32.007 97.729,35.412 117.47,7.6c19.741,-27.812 -0.841,-76.377 -45.934,-108.384c-45.093,-32.007 -97.729,-35.412 -117.47,-7.6Z" style="fill:#2ac413;"/><path d="M1329.373,1416.678c24.606,23.617 75.67,10.401 113.961,-29.494c38.29,-39.895 49.4,-91.458 24.794,-115.075c-24.606,-23.617 -75.67,-10.401 -113.961,29.494c-38.29,39.895 -49.4,91.458 -24.794,115.075Z" style="fill:#2ac413;"/><path d="M884.626,1312.185c9.757,6.672 11.519,10.781 27.477,-4.207c13.611,-12.785 11.786,-15.27 13.983,-22.241c21.107,17.94 49.369,7.326 46.363,-10.689" style="fill:none;stroke:#000;stroke-width:6.25px;"/><path d="M704.709,1237.201c43.261,-15.521 90.984,7 106.505,50.261c15.521,43.261 -7,90.984 -50.261,106.505c-43.261,15.521 -90.984,-7 -106.505,-50.261c-15.521,-43.261 7,-90.984 50.261,-106.505Z" style="fill:#292929;"/><path d="M755.237,1307.545c12.367,-4.437 26.009,2.001 30.446,14.368c4.437,12.367 -2.001,26.009 -14.368,30.446c-12.367,4.437 -26.009,-2.001 -30.446,-14.368c-4.437,-12.367 2.001,-26.009 14.368,-30.446Z" style="fill:#fff;"/><path d="M690.127,1285.693c7.115,-2.553 14.963,1.151 17.516,8.266c2.553,7.115 -1.151,14.963 -8.266,17.516c-7.115,2.553 -14.963,-1.151 -17.516,-8.266c-2.553,-7.115 1.151,-14.963 8.266,-17.516Z" style="fill:#fff;"/><g><path d="M765.507,1476.665l-3.319,19.335" style="fill:none;stroke:#000;stroke-width:6.25px;"/><path d="M789.962,1471.102l-2.507,19.621" style="fill:none;stroke:#000;stroke-width:6.25px;"/><path d="M823.199,1461.209l-4.15,23.672" style="fill:none;stroke:#000;stroke-width:6.25px;"/><path d="M1150.173,1343.231l-1.635,15.957" style="fill:none;stroke:#000;stroke-width:6.25px;"/><path d="M1179.27,1331.217l1.017,22.169" style="fill:none;stroke:#000;stroke-width:6.25px;"/><path d="M1207.462,1320.494l0.808,16.489" style="fill:none;stroke:#000;stroke-width:6.25px;"/></g><g><path d="M1051.066,1037.606c80.096,-28.736 168.454,12.961 197.19,93.057c28.736,80.096 -12.961,168.454 -93.057,197.19c-80.096,28.736 -168.454,-12.961 -197.19,-93.057c-28.736,-80.096 12.961,-168.454 93.057,-197.19Z" style="fill:#2ac413;"/><path d="M1063.015,1070.913c61.713,-22.141 129.792,9.986 151.934,71.7c22.141,61.713 -9.986,129.792 -71.7,151.934c-61.713,22.141 -129.792,-9.986 -151.934,-71.7c-22.141,-61.713 9.986,-129.792 71.7,-151.934Z" style="fill:#ffc432;"/><path d="M1075.01,1104.346c43.261,-15.521 90.984,7 106.505,50.261c15.521,43.261 -7,90.984 -50.261,106.505c-43.261,15.521 -90.984,-7 -106.505,-50.261c-15.521,-43.261 7,-90.984 50.261,-106.505Z" style="fill:#292929;"/><path d="M1126.263,1174.431c12.367,-4.437 26.009,2.001 30.446,14.368c4.437,12.367 -2.001,26.009 -14.368,30.446c-12.367,4.437 -26.009,-2.001 -30.446,-14.368c-4.437,-12.367 2.001,-26.009 14.368,-30.446Z" style="fill:#fff;"/><path d="M1059.217,1153.273c7.115,-2.553 14.963,1.151 17.516,8.266c2.553,7.115 -1.151,14.963 -8.266,17.516c-7.115,2.553 -14.963,-1.151 -17.516,-8.266c-2.553,-7.115 1.151,-14.963 8.266,-17.516Z" style="fill:#fff;"/></g></g><path d="M1800.002,896.533c-0.977,-5.874 -3.887,-22.342 -51.353,-37.819c-1.673,-0.546 -14.458,-5.243 -45.471,-12.594c-10.09,-2.392 -39.442,-8.657 -61.138,-12.545c-55.381,-9.925 -190.315,-39.038 -463.415,-57.24c-18.659,-1.244 -116.485,-7.764 -233.531,-10.304c-18.224,-0.396 -127.85,0.952 -138.967,1.089c-0.488,0.006 -0.177,-0.457 -0.021,-0.479c1.336,-0.188 125.307,-7.317 138.963,-7.668c52.463,-1.349 174.9,-2.994 299.329,1.853c161.556,6.293 261.854,19.058 321.863,28.381c49.499,7.69 78.264,15.452 84.96,17.258c19.355,5.222 39.28,10.848 67.655,22.035c1.485,0.586 22.64,9.243 37.43,17.779c42.261,24.393 44.626,41.574 43.695,50.252Zm-1510.133,-86.066c-38.049,11.27 -63.705,19.267 -94.877,30.657c-10.143,3.706 -32.346,12.261 -48.667,20.365c-0.851,0.422 -18.147,8.909 -29.088,17.567c-17.142,13.564 -11.893,20.259 -11.033,21.725c11.135,18.982 70.147,46.545 201.671,71.259c14.753,2.772 235.975,47.73 631.684,55.966c67.649,1.408 116.712,1.15 116.754,1.19c0.053,0.05 0.596,0.416 0.01,0.479c-2.811,0.304 -44.326,1.602 -48.181,1.722c-439.826,13.75 -827.264,-26.994 -912.208,-97.839c-0.054,-0.045 -28.019,-20.586 -18.398,-48.319c13.473,-38.837 89.039,-55.977 126.536,-63.452c16.813,-3.352 44.69,-6.947 48.59,-7.45c13.733,-1.771 18.016,-2.198 37.207,-3.872Z" style="fill:#d0d0d0;"/><path d="M905.641,1488.164c0.306,-0.008 0.588,-0.015 0.844,-0.022c-0.386,0.109 -0.724,0.172 -0.844,0.022Zm0,0c-5.382,0.134 -18.013,0.334 -19.381,0.355c-61.755,0.975 -193.568,0.937 -337.207,-21.804c-75.851,-12.009 -128.359,-27.495 -139.305,-30.724c-128.669,-37.95 -190.929,-89.136 -191.646,-143.953c-0.454,-34.704 25.415,-59.69 31.938,-65.993c56.855,-54.936 172.036,-81.595 210.82,-90.057c11.924,-2.602 70.549,-15.193 150.994,-22.649c8.466,-0.785 17.731,-1.547 19.273,-1.674c-72.884,13.372 -121.304,25.458 -166.591,38.734c-79.712,23.368 -123.063,46.157 -126.045,47.635c-49.127,24.352 -81,51.296 -90.065,77.065c-4.572,12.999 -11.3,44.116 47.108,84.012c55.593,37.973 158.116,73.956 298.666,98.846c143.585,25.428 276.703,29.106 311.394,30.051c-0,0.067 0.016,0.118 0.047,0.156Zm0.844,-0.022c0.703,-0.199 1.567,-0.554 1.566,-0.069c-0,0.017 -0.586,0.041 -1.566,0.069Z" style="fill:#d0d0d0;"/></g></g></svg>