<?xml version="1.0" encoding="UTF-8" standalone="no"?><!DOCTYPE svg PUBLIC "-//W3C//DTD SVG 1.1//EN" "http://www.w3.org/Graphics/SVG/1.1/DTD/svg11.dtd"><svg width="100%" height="100%" viewBox="0 0 2250 2813" version="1.1" xmlns="http://www.w3.org/2000/svg" xmlns:xlink="http://www.w3.org/1999/xlink" xml:space="preserve" xmlns:serif="http://www.serif.com/" style="fill-rule:evenodd;clip-rule:evenodd;stroke-linecap:round;stroke-linejoin:round;stroke-miterlimit:1.5;"><rect id="VOLCANIC-ASH" serif:id="VOLCANIC ASH" x="0" y="0" width="2250" height="2812.5" style="fill:none;"/><clipPath id="_clip1"><rect x="0" y="0" width="2250" height="2812.5"/></clipPath><g clip-path="url(#_clip1)"><g><g><path d="M133.113,1732.632c-40.047,-67.374 -33.23,-69.436 -36.812,-146.229c94.885,111.184 28.721,-55.193 5.999,-157.477c-7.076,-31.851 -39.86,-54.997 55.601,-168.524c20.233,95.037 -35.912,189.653 19.428,213.467c47.083,20.261 -17.385,-54.812 36.769,-121.953c11.974,55.515 9.646,56.388 15.478,57.315c52.461,8.338 4.22,-26.873 -0.265,-123.269c-2.432,-52.274 58.324,-52.996 60.057,-152.743c12.873,105.385 17.716,103.564 32.804,146.181c6.959,-44.179 7.735,-43.31 1.329,-88.269c55.802,100.187 31.543,104.918 25.571,184.481c-4.097,54.578 23.807,15.564 25.053,14.461c30.778,-27.256 28.779,-27.985 34.878,-67.574c15.32,46.098 9.354,47.307 -19.483,86.582c-35.523,48.381 80.064,-4.95 64.131,-61.766c-12.23,-43.613 -68.145,-37.524 -31.47,-122.682c14.453,55.417 38.316,41.145 65.629,90.633c15.25,27.631 64.205,2.601 22.962,-47.192c-39.128,-47.24 -55.67,-50.428 -25.829,-104.289c35.62,-64.292 46.558,-62.372 37.308,-135.229c71.593,96.051 -28.656,151.726 24.152,145.868c86.9,-9.641 18.123,-56.042 47.517,-245.971c-0.795,126.061 37.476,117.922 50.753,206.375c7.488,49.884 -14.616,132.419 3.606,174.047c7.998,-18.136 15.996,-36.271 23.994,-54.407c38.11,58.862 27.726,61.121 42.091,128.941c96.67,-37.284 -24.849,-119.992 -9.654,-224.99c12.742,-88.044 129.347,-78.143 116.993,-219.251c76.819,81.963 25.048,99.651 -17.239,264.803c-8.455,33.022 58.801,76.012 65.468,65.381c7.326,-11.681 -15.074,-17.211 39.115,-165.991c0.052,8.062 0.613,94.816 23.171,98.328c66.425,10.342 -2.648,-137.36 4.298,-193.401c12.444,-100.4 90.231,-176.294 65.01,-287.756c76.267,128.29 -1.472,252.189 68.14,274.402c17.62,5.622 28.61,-36.602 18.748,-66.547c-15.606,-47.386 -15.045,-48.236 8.923,-92.91c-3.103,159.333 115.706,159.389 41.263,301.319c-1.807,3.444 -36.975,70.496 13.22,46.459c52.808,-25.288 59.846,-89.511 65.042,-109.896c-24.029,148.833 -44.146,159.685 51.977,280.653c18.502,-48.67 20.251,-49.449 -1.513,-98.416c-16.698,-37.57 -9.254,-38.06 -5.557,-66.529c5.76,16.111 62.094,105.652 72.238,106.706c124.288,12.911 -37.512,-107.055 -37.419,-111.207c0.395,-17.551 2.618,-15.558 33.555,-88.512c33.476,-78.941 22.823,-86.992 25.214,-110.153c33.747,80.703 -2.381,87.529 30.596,167.573c63.325,-108.023 -19.462,-130.89 44.049,-221.025c28.225,144.06 73.967,141.827 37.85,284.986c-1.388,5.502 -13.61,53.946 2.501,70.697c4.544,4.725 30.65,20.011 45.702,-67.244c63.869,59.994 -12.487,90.451 43.993,155.956c28.319,-68.181 79.11,-57.992 62.65,-100.495c-35.096,-90.626 -58.601,-88.345 -37.805,-183.394c20.915,69.092 19.788,69.841 72.95,127.342c23.921,25.873 17.697,48.836 25.145,224.568c34.559,-39.948 28.879,-42.789 28.445,-95.182c1.477,2.537 91.042,133.136 37.759,4.426c-29.426,-71.081 29.235,-97.23 29.982,-221.76c50.085,84.774 -23.686,120.468 55.883,167.441c-11.632,-56.14 -17.836,-57.205 6.525,-109.235c26.27,83.353 51.106,84.808 15.758,163.904c-17.369,38.865 14.533,55.224 23.369,44.619c41.359,-49.636 44.15,-64.469 45.382,-71.017c24.47,87.432 -40.264,98.727 14.622,172.465c31.325,42.085 115.51,324.099 -225.455,267.036c-63.031,-10.549 -65.085,-36.056 -121.525,-29.077c-162.065,20.039 -161.776,18.078 -322.756,-13.507c-134.355,-26.36 -198.409,37.968 -394.263,7.694c-159.182,-24.605 -151.684,96.04 -366.639,51.85c-115.576,-23.76 -140.225,22.138 -381.81,-53.823" style="fill:#f77c05;"/><path d="M80.292,1584.661c-5.47,-37.368 -28.666,-31.153 -26.365,-68.472c1.979,-32.113 3.965,-31.27 13.868,-61.953c3.316,27.019 -1.04,28.07 15.698,50.814c24.311,33.035 -7.453,81.863 -6.514,83.67" style="fill:#f77c05;"/><path d="M209.493,1270.735c-30.723,-36.475 -3.412,-93.049 2.263,-113.1c2.097,5.738 18.312,50.115 7.04,75.657c-9.048,20.502 -10.303,19.581 -12.29,41.911" style="fill:#f77c05;"/><path d="M358.948,1128.969c-10.119,-39.18 4.532,-38.036 9.293,-78.497c13.331,35.754 7.894,36.637 -9.128,76.121" style="fill:#f77c05;"/><path d="M428.425,1076.444c-21.243,50.879 -22.814,76.825 11.899,107.222c0.677,-66.673 24.579,-73.27 -9.059,-107.589" style="fill:#f77c05;"/><path d="M377.495,1191.736c-3.698,6.272 -9.686,6.433 -0.084,52.804c1.266,-2.149 21.434,-22.492 0.785,-48.935" style="fill:#f77c05;"/><path d="M686.417,1007.647c-33.486,39.682 6.736,73.012 -9.419,145.531c4.312,-4.523 39.553,-41.489 28.253,-71.5c-13.598,-36.116 -19.472,-34.642 -18.665,-73.16" style="fill:#f77c05;"/><path d="M757.513,946.736c-19.481,33.897 -16.138,34.964 -13.666,72.967c31.845,-25.114 19.664,-31.104 15.408,-70.248" style="fill:#f77c05;"/><path d="M891.961,792.362c14.106,43.062 -8.928,69.432 -11.865,75.833c-8.448,18.414 -16.988,42.08 12.076,101.437c4.17,-67.07 38.8,-60.873 33.417,-128.412c-0.641,-8.043 -9.472,-20.531 -30.325,-43.317" style="fill:#f77c05;"/><path d="M1161.751,690.264c-6.119,13.228 -36.202,73.379 -36.699,95.474c-1.228,54.607 8.423,53.127 18.1,113.979c61.213,-100.191 41.398,-107.034 18.51,-220.889" style="fill:#f77c05;"/><path d="M1226.514,898.652c-13.255,38.303 -16.09,55.414 -4.8,111.853c32.137,-52.262 13.235,-55.575 6.678,-110.388" style="fill:#f77c05;"/><path d="M1275.737,992.267c-14.243,45.434 -1.822,60.589 9.246,100.502c21.083,-49.193 14.385,-51.208 -7.669,-99.736" style="fill:#f77c05;"/><path d="M1528.187,962.839c-42.721,64.237 13.742,70.532 0.374,146.347c40.815,-42.149 14.077,-49.562 1.718,-144.779" style="fill:#f77c05;"/><path d="M138.208,1733.427c43.933,-92.348 47.461,-92.576 39.333,-194.822c30.721,49.708 43.648,111.047 55.946,53.446c1.356,-6.349 -14.325,-59.814 -7.514,-86.874c1.699,-6.75 6.908,-4.946 29.422,-82.113c0.759,76.815 11.166,82.049 14.107,76.503c26.795,-50.528 1.006,-55.346 17.873,-109.11c15.162,107.276 42.925,105.836 17.447,209.733c-0.245,0.999 -2.63,10.723 4.008,12.241c3.341,0.764 1.613,-2.462 22.75,-34.727c18.423,30.404 9.852,31.971 18.743,65.947c1.154,4.412 32.827,-6.841 26.585,-33.647c-15.422,-66.235 -28.24,-65.257 -12.213,-131.798c1.213,6.591 18.053,98.114 36.75,75.957c4.938,-5.851 -6.154,-11.586 47.351,-82.309c24.799,-32.779 14.844,-35.574 29.387,-70.427c21.763,160.824 -68.583,194.973 36.554,256.251c25.306,14.749 -4.863,-48.776 -8.18,-65.558c-4.151,-21.005 29.074,-96.325 32.616,-104.355c0.286,5.948 9.088,188.875 32.609,67.629c3.242,-16.714 -35.982,-103.616 -18.463,-150.962c26.428,-71.421 33.711,-68.779 41.949,-145.317c16.607,73.722 13.98,72.303 23.316,147.68c2.005,16.188 33.069,46.794 33.087,28.335c0.051,-52.498 -9.302,-51.776 -0.155,-103.845c41.289,137.129 16.043,139.308 17.391,179.887c1.305,39.293 22.986,48.605 27.771,46.087c52.535,-27.642 35.121,-39.998 52.494,-95.509c-12.996,137.374 3.429,144.02 21.481,139.279c23.142,-6.077 -30.535,-59.32 -3.727,-133.415c23.304,-64.409 36.747,-65.69 8.542,-129.633c124.554,114.193 -34.798,213.335 52.181,236.342c73.109,19.338 6.955,-111.46 25.099,-169.745c21.703,47.845 42.932,36.685 53.801,87.138c5.779,26.822 43.291,14.4 25.698,-10.867c-39.784,-57.134 -52.594,-62.746 -15.261,-121.403c54.809,-86.114 42.955,-105.487 46.586,-127.972c0.618,6.406 21.689,224.66 37.38,72.089c7.155,-69.566 -7.457,-70.613 18.521,-137.43c38.313,189.184 71.076,189.574 32.171,325.411c-6.409,22.375 11.374,28.046 22.001,21.798c5.361,-3.152 8.866,-5.212 22.326,-71.979c35.29,89.413 -5.382,195.93 47.427,121.632c36.53,-51.395 4.957,-118.644 0.569,-127.989c-26.948,-57.396 -31.325,-61.54 8.311,-142.269c4.478,14.382 48.131,154.601 77.938,172.182c3.943,2.326 22.886,9.277 19.833,-51.916c35.941,153.481 57.975,-24.927 58.597,-29.964c25.955,51.262 12.625,52.504 9.696,109.371c-3.074,59.696 6.939,57.52 35.72,111.454c5.927,-54.985 3.713,-53.6 16.406,-108.751c1.354,3.562 25.654,67.492 32.089,36.155c3.323,-16.182 -25.22,-36.114 -20.36,-91.577c1.177,-13.434 9.17,-11.906 33.262,-165.497c22.43,81.197 16.904,81.81 54.749,158.901c6.844,-53.788 -10.029,-53.237 0.075,-105.943c85.936,174.069 18.364,185.69 32.171,203.549c4.543,5.877 28.173,18.853 53.481,-75.682c9.263,64.798 -29.529,82.539 0.587,101.195c6.339,3.927 19.95,8.523 47.841,-77.698c0.942,8.265 8.169,15.115 9.111,23.38c0.505,4.426 0.151,4.12 2.039,55.613c16.623,-59.717 28.938,-93.509 31.856,-101.516c3.336,53.961 2.071,52.959 19.977,103.341c3.142,8.839 -0.653,8.499 -1.581,116.654c4.496,-4.068 42.612,-38.548 39.41,-63.598c-5.272,-41.244 -20.111,-37.479 -19.046,-78.659c27.005,24.7 23.181,27.121 56.207,45.855c-5.53,-49.099 -20.392,-51.059 4.248,-94.216c27.201,-47.643 13.406,-50.118 19.518,-72.97c0.775,9.323 5.402,18.109 6.177,27.432c0.371,4.466 0.179,4.145 2.421,55.951c2.425,-11.941 19.911,-9.031 11.243,-55.36c-4.751,-25.393 -2.197,-24.549 11.366,-45.124c49.554,137.904 -9.097,136.667 -10.242,158.131c-5.445,102.088 40.163,8.092 41.418,5.139c1.506,2.119 18.828,26.483 18.828,26.483c-15.794,100.457 44.857,10.578 51.48,3.102c-28.742,-55.699 -46.044,-56.656 -18.713,-112.396c16.393,45.608 93.18,144.968 24.629,244.922c-73.649,107.386 -243.781,22.623 -335.002,27.245c-257.176,13.031 -257.386,-56.582 -510.48,-14.027c-179.248,30.139 -189.977,-40.376 -356.932,29.851c-113.484,47.735 -503.468,0.763 -563.29,-28.994" style="fill:#f8cd27;"/><path d="M1067.989,1043.531c-17.72,49.577 -9.901,80.827 -8.187,87.677c23.516,-38.516 12.62,-40.689 5.336,-85.103" style="fill:#f8cd27;"/><path d="M1106.798,1244.192c1.841,36.854 -9.563,35.788 -6.192,72.249c27.763,-37.788 25.829,-45.634 7.612,-67.989" style="fill:#f8cd27;"/><path d="M1385.689,1178.125c-5.112,32.117 -0.942,31.389 9.499,62.653c4.333,-30.799 9.369,-31.836 -6.046,-60.845" style="fill:#f8cd27;"/><path d="M320.448,1318.511c-4.156,16.452 -2.211,15.94 -1.99,42.097c30.689,-39.618 7.104,-42.397 4.001,-40.956" style="fill:#f8cd27;"/><path d="M1824.902,1310.722c0.486,23.888 -3.337,23.856 4.823,46.988c3.117,-10.285 14.497,-14.597 -2.307,-42.496" style="fill:#f8cd27;"/><path d="M162.449,1748.982c24.513,-26.631 17.642,-28.599 29.01,-57.625c1.823,1.943 63.964,68.192 33.45,6.697c-13.97,-28.153 -2.17,-27.617 17.031,-72.333c0.67,24.353 -3.114,23.387 5.952,45.921c22.467,-36.505 18.125,-37.055 29.774,-79.106c0.349,1.257 24.948,61.751 13.081,88.531c-10.231,23.087 -12.624,22.001 -9.132,46.473c5.075,-7.044 10.149,-14.088 15.224,-21.132c9.048,18.331 11.127,15.246 20.389,32.861c11.018,-44.473 -6.972,-44.028 -0.306,-88.275c56.464,81.955 56.311,91.056 65.644,84.025c7.54,-5.68 -16.841,-10.513 9.772,-114.15c8.629,39.8 5.379,54.829 16.675,42.908c3.802,-4.012 1.009,-4.854 13.786,-66.301c3.988,7.549 10.894,13.466 14.881,21.015c28.991,54.882 -33.476,137.549 23.457,89.312c20.26,19.826 20.568,31.288 32.765,19.339c32.149,-31.494 19.72,-35.943 31.025,-76.968c18.568,59.883 -53.813,110.116 30.417,125.844c-1.743,-38.755 -0.275,-37.538 8.454,-74.373c0.859,2.235 60.553,135.196 27.89,13.342c-17.906,-66.802 -13.235,-67.035 11.422,-133.427c1.08,3.955 42.752,156.497 39.602,34.404c36.575,45.816 32.386,48.993 23.119,105.826c-2.548,15.624 -2.788,14.203 2.868,28.317c26.755,-30.431 19.098,-74.166 41.68,-40.166c7.374,11.102 27.189,41.187 21.427,7.135c-8.649,-51.116 -12.697,-44.28 19.735,-86.845c1.218,13.021 2.436,26.042 3.654,39.063c1.495,-6.845 10.473,-47.944 22.059,-84.825c17.665,34.476 16.046,54.548 49.637,34.783c8.578,43.095 15.626,51.559 18.651,55.192c3.524,-13.591 7.048,-27.182 10.572,-40.772c27.751,39.868 39.393,31.286 41.718,41.54c0.419,1.848 8.568,37.789 19.433,14.671c4.499,-9.572 -32.9,-50.841 -29.611,-61.987c18.135,-61.462 31.309,-55.23 51.399,-115.847c12.681,74.357 22.75,84.624 32.622,72.346c4.283,-5.328 -18.853,-8.746 11.17,-83.23c26.513,76.63 44.158,79.154 9.243,152.061c-4.231,8.835 7.541,32.351 16.091,28.94c18.077,-7.21 24.481,-12.346 8.601,-24.581c12.784,7.633 25.568,15.265 38.352,22.898l6.136,36.147c48.895,-53.759 11.166,-62.414 12.683,-132.797c27.957,55.146 32.886,50.138 74.474,94.743c5.489,-37.55 -5.092,-35.444 -12.216,-60.772c-10.554,-37.518 5.819,-34.193 33.269,-63.122c13.711,65.519 27.647,60.109 32.427,57.551c4.648,-2.487 3.085,-4.027 19.761,-115.443c8.432,49.901 6.915,49.157 32.444,91.923c20.464,34.282 15.484,-9.285 39.078,-41c11.697,57.898 -24.609,70.398 23.443,108.509c40.666,32.253 39.1,-1.72 63.945,-46.13c-0.516,55.653 -7.824,56.762 16.231,107.845c5.268,-14.031 10.536,-28.062 15.804,-42.094c12.561,13.749 11.753,25.446 25.236,12.956c-33.622,-95.377 -4.778,-110.685 3.333,-139.483c14.262,36.851 9.432,38.648 38.986,67.853c0.112,-12.703 0.224,-25.407 0.336,-38.11c37.755,36.975 19.239,44.094 30.425,94.853c7.582,34.404 22.447,16.03 49.492,-7.463c7.515,23.273 15.697,13.713 30.364,5.047c0,0 4.816,11.087 4.816,11.087l8.979,-19.752c11.377,17.476 16.202,22.474 30.019,6.967c18.599,26.014 13.398,38.393 37.71,32.538c10.187,22.026 14.765,15.913 40.25,21.279c-7.421,-8.968 -14.842,-17.936 -22.262,-26.904c3.021,1.731 49.578,28.404 42.981,9.246c-4.553,-13.221 -24.388,-14.309 4.724,-87.982c7.67,17.33 0.149,20.218 25.29,42.852c0.053,-3.929 0.892,-3.317 6.943,-48.665c0.098,0.24 30.883,34.034 18.853,113.405c18.96,-12.94 18.894,-12.861 24.311,-34.681c0.936,2.794 19.913,59.412 25.332,27.581c5.951,-34.954 -22.344,-34.468 -6.357,-68.779c27.189,58.141 70.22,62.914 22.971,108.844c-54.972,53.437 -68.346,12.15 -453.012,-16.07c-130.792,-9.595 -172.189,-43.622 -290.222,-9.682c-146.708,42.185 -157.368,-33.057 -424.67,38.411c-139.58,37.32 -182.853,7.034 -520.893,-18.854" style="fill:#f9f07b;"/></g><path d="M373.213,1864.764c15.276,7.29 32.506,11.393 50.732,11.393c62.765,0 113.722,-48.655 113.722,-108.585c0,-59.93 -50.957,-108.585 -113.722,-108.585c-0.283,0 -0.566,0.001 -0.848,0.003c-20.68,-40.588 -70.255,-69.203 -128.063,-69.203c-70.702,0 -129.089,42.804 -137.359,97.965c-5.058,-0.897 -10.273,-1.366 -15.601,-1.366c-46.928,0 -85.028,36.379 -85.028,81.187c0,44.808 38.1,81.187 85.028,81.187c22.468,0 42.912,-8.339 58.12,-21.949c7.267,42.824 46.989,75.604 94.84,75.604c32.221,0 60.757,-14.864 78.18,-37.649Z" style="fill:#919191;"/><path d="M1749.673,1864.687c-15.307,7.305 -32.572,11.416 -50.835,11.416c-62.893,0 -113.954,-48.754 -113.954,-108.806c0,-60.052 51.061,-108.806 113.954,-108.806c0.284,-0 0.567,0.001 0.85,0.003c20.722,-40.67 70.398,-69.344 128.323,-69.344c70.846,0 129.351,42.891 137.638,98.164c5.068,-0.899 10.294,-1.369 15.633,-1.369c47.024,0 85.201,36.453 85.201,81.352c0,44.899 -38.177,81.352 -85.201,81.352c-22.514,0 -42.999,-8.356 -58.238,-21.994c-7.281,42.911 -47.085,75.758 -95.032,75.758c-32.287,0 -60.881,-14.894 -78.338,-37.726Z" style="fill:#919191;"/><path d="M671.284,1521.329l768.919,0c38.963,-66.821 59.476,-142.619 59.476,-219.777c0,-242.597 -198.921,-439.555 -443.935,-439.555c-245.015,0 -443.935,196.958 -443.935,439.555c0,77.158 20.513,152.957 59.476,219.777Z" style="fill:#2ac413;"/><circle cx="1289.393" cy="1022.631" r="178.158" style="fill:#2ac413;"/><ellipse cx="1289.393" cy="1220.343" rx="90.917" ry="35.23" style="fill:#ecb1d5;"/><circle cx="834.8" cy="1022.631" r="178.158" style="fill:#2ac413;"/><ellipse cx="816.045" cy="1220.343" rx="90.917" ry="35.23" style="fill:#ecb1d5;"/><circle cx="1289.393" cy="1022.631" r="137.27" style="fill:#ffc432;"/><circle cx="834.8" cy="1022.631" r="137.27" style="fill:#ffc432;"/><path d="M875.468,1520.736l331.343,0c16.79,-26.873 25.629,-57.357 25.629,-88.388c0,-97.565 -85.719,-176.776 -191.301,-176.776c-105.582,0 -191.301,79.211 -191.301,176.776c0,31.031 8.839,61.515 25.629,88.388Z" style="fill:#ffc432;"/><path d="M693.671,1337.436c-27.867,27.867 -87.173,13.809 -132.355,-31.372c-45.182,-45.182 -59.239,-104.488 -31.372,-132.355c27.867,-27.867 87.173,-13.809 132.355,31.372c45.182,45.182 59.239,104.488 31.372,132.355Z" style="fill:#2ac413;"/><path d="M1417.815,1337.436c27.867,27.867 87.173,13.809 132.355,-31.372c45.182,-45.182 59.239,-104.488 31.372,-132.355c-27.867,-27.867 -87.173,-13.809 -132.355,31.372c-45.182,45.182 -59.239,104.488 -31.372,132.355Z" style="fill:#2ac413;"/><path d="M1122.969,1078.167c-8.009,11.065 -8.322,16.221 -31.527,6.146c-19.793,-8.594 -18.777,-12.009 -23.887,-18.734c-15.956,27.749 -50.837,27.232 -54.597,6.466" style="fill:none;stroke:#000;stroke-width:6.25px;"/><circle cx="834.8" cy="1022.631" r="96.225" style="fill:#292929;"/><circle cx="1289.393" cy="1022.631" r="96.225" style="fill:#292929;"/><circle cx="1289.393" cy="1073.504" r="27.508" style="fill:#fff;"/><circle cx="838.751" cy="1073.504" r="27.508" style="fill:#fff;"/><g><path d="M1316.709,1210.579l11.154,19.734" style="fill:none;stroke:#000;stroke-width:6.25px;"/><path d="M1287.941,1214.071l10.383,20.363" style="fill:none;stroke:#000;stroke-width:6.25px;"/><path d="M1247.93,1216.281l13.751,24.127" style="fill:none;stroke:#000;stroke-width:6.25px;"/><path d="M846.266,1215.554l8.005,16.717" style="fill:none;stroke:#000;stroke-width:6.25px;"/><path d="M809.931,1213.841l7.545,24.508" style="fill:none;stroke:#000;stroke-width:6.25px;"/><path d="M775.085,1213.18l5.556,18.249" style="fill:none;stroke:#000;stroke-width:6.25px;"/></g><g><path d="M1960.76,2316.83l-1809.904,0l452.476,-878.717l904.952,0l452.476,878.717Z" style="fill:#292929;"/><path d="M594.952,1490.504c12.396,-61.684 214.146,-110.804 460.856,-110.804c245.172,0 445.943,48.509 460.602,109.652c0.337,0.369 0.612,0.811 0.857,1.332c26.246,55.683 4.647,124.371 12.484,185.464c4.946,38.553 -20.849,179.599 -49.362,47.389c-13.415,-62.204 -94.189,-94.113 -110.816,33.802c-13.366,102.829 0.549,104.052 72.974,175.997c35.47,35.235 50.848,110.472 -43.163,94.656c-134.236,-22.583 -140.467,-160.083 -144.992,-175.509c-87.749,-299.207 -307.817,143.411 -253.835,210.711c10.014,12.484 28.303,18.071 35.43,32.401c30.647,61.617 -91.022,107.677 -123.046,77.155c-71.436,-68.086 50.003,-310.426 20.574,-432.313c-20.495,-84.887 -91.679,36.524 -113.992,42.722c-48.794,13.554 -44.233,-71.001 -55.808,-93.3c-27.906,-53.76 -157.862,-77.932 -136.544,211.484c12.168,165.196 -129.995,131.384 -134.236,85.623c-6.079,-65.59 1.026,-63.906 30.941,-124.37c75.239,-152.072 55.971,-320.208 71.077,-372.091Z" style="fill:#c42434;"/><path d="M594.952,1455.224c12.396,-61.684 214.146,-110.804 460.856,-110.804c245.172,0 445.943,48.509 460.602,109.652c0.337,0.369 0.612,0.811 0.857,1.332c26.246,55.683 4.647,124.371 12.484,185.464c4.946,38.553 -20.849,179.599 -49.362,47.389c-13.415,-62.204 -94.189,-94.113 -110.816,33.802c-13.366,102.829 0.549,104.052 72.974,175.997c35.47,35.235 50.848,110.472 -43.163,94.656c-134.236,-22.583 -140.467,-160.083 -144.992,-175.509c-87.749,-299.207 -307.817,143.411 -253.835,210.711c10.014,12.484 28.303,18.071 35.43,32.401c30.647,61.617 -91.022,107.677 -123.046,77.155c-71.436,-68.086 50.003,-310.426 20.574,-432.313c-20.495,-84.887 -91.679,36.524 -113.992,42.722c-48.794,13.554 -44.233,-71.001 -55.808,-93.3c-27.906,-53.76 -157.862,-77.932 -136.544,211.484c12.168,165.196 -129.995,131.384 -134.236,85.623c-6.079,-65.59 1.026,-63.906 30.941,-124.37c75.239,-152.072 55.971,-320.208 71.077,-372.091Z" style="fill:#f7522c;"/><ellipse cx="1055.743" cy="1492.883" rx="321.777" ry="54.771" style="fill:#292929;"/></g><path d="M1127.298,1022.631l283.301,-96.225c0,0 -182.007,-177.795 -283.301,96.225Z" style="fill:#2ac413;"/><path d="M991.489,1022.631l-283.301,-96.225c0,0 182.007,-177.795 283.301,96.225Z" style="fill:#2ac413;"/><circle cx="1702.186" cy="787.552" r="51.111" style="fill:#d0d0d0;"/><circle cx="1386.594" cy="700.114" r="51.111" style="fill:#d0d0d0;"/><circle cx="1698.109" cy="555.543" r="51.111" style="fill:#d0d0d0;"/><circle cx="2015.372" cy="802.155" r="51.111" style="fill:#d0d0d0;"/><circle cx="1913.15" cy="1038.366" r="51.111" style="fill:#d0d0d0;"/><circle cx="2200.656" cy="1038.366" r="51.111" style="fill:#d0d0d0;"/><circle cx="2117.594" cy="1313.207" r="51.111" style="fill:#d0d0d0;"/><circle cx="1051.314" cy="546.781" r="51.111" style="fill:#d0d0d0;"/><circle cx="735.886" cy="700.114" r="51.111" style="fill:#d0d0d0;"/><circle cx="336.179" cy="597.892" r="51.111" style="fill:#d0d0d0;"/><circle cx="85.005" cy="1101.297" r="51.111" style="fill:#d0d0d0;"/><circle cx="52.878" cy="700.114" r="51.111" style="fill:#d0d0d0;"/><circle cx="233.957" cy="842.654" r="51.111" style="fill:#d0d0d0;"/><circle cx="510.63" cy="890.845" r="51.111" style="fill:#d0d0d0;"/></g></g></svg>